<svg width="22" height="22" viewBox="0 0 22 22" fill="none" xmlns="http://www.w3.org/2000/svg">
<g clip-path="url(#clip0_2669_6498)">
<path d="M-0.0429688 11.9023C-0.0429688 11.2856 -0.0429688 10.6688 -0.026886 10.023C0.0350361 9.65233 0.0774345 9.31008 0.127373 8.96892C0.273905 7.96783 0.606218 7.02381 1.04593 6.11919C1.46261 5.26194 1.98517 4.47244 2.61941 3.75475C3.22363 3.07105 3.88294 2.45294 4.62746 1.9262C5.3938 1.38404 6.21824 0.946749 7.09759 0.622993C7.86824 0.339254 8.6606 0.128023 9.48174 0.0412006C9.65938 0.022419 9.83511 -0.0144367 10.0117 -0.0429688C10.6285 -0.0429688 11.2453 -0.0429688 11.891 -0.026886C12.2617 0.035038 12.604 0.0774384 12.9451 0.127377C13.9462 0.273911 14.8903 0.606222 15.7949 1.04593C16.6521 1.46261 17.4416 1.98517 18.1593 2.61942C18.843 3.22363 19.4611 3.88294 19.9879 4.62746C20.53 5.3938 20.9673 6.21824 21.2911 7.09759C21.5748 7.86824 21.786 8.66061 21.8729 9.48174C21.8916 9.65938 21.9285 9.83511 21.957 10.0117C21.957 10.6285 21.957 11.2453 21.9409 11.891C21.879 12.2617 21.8366 12.604 21.7867 12.9451C21.6402 13.9462 21.3078 14.8903 20.8681 15.7949C20.4514 16.6521 19.9289 17.4416 19.2946 18.1593C18.6904 18.843 18.0311 19.4611 17.2866 19.9879C16.5203 20.53 15.6958 20.9673 14.8165 21.2911C14.0458 21.5748 13.2535 21.786 12.4323 21.8729C12.2547 21.8916 12.079 21.9285 11.9023 21.957C11.2856 21.957 10.6688 21.957 10.0232 21.941C9.57685 21.8644 9.15705 21.8164 8.74227 21.7408C7.39326 21.4951 6.15398 20.9688 5.003 20.2328C4.11518 19.665 3.33591 18.9721 2.63904 18.1791C2.03548 17.4922 1.51589 16.7488 1.12441 15.9285C0.82687 15.3051 0.575996 14.6535 0.370434 13.9938C0.208824 13.4752 0.1474 12.9253 0.0430794 12.389C0.011631 12.2273 -0.0144367 12.0646 -0.0429688 11.9023ZM7.36081 15.6919C8.18661 16.5168 9.01112 17.343 9.83969 18.165C9.95571 18.2801 10.0809 18.3931 10.2202 18.4764C10.8332 18.8428 11.5052 18.7345 12.0535 18.1865C13.5882 16.6528 15.1211 15.1172 16.6541 13.5818C16.8919 13.3437 17.1399 13.1141 17.3602 12.8606C17.8255 12.3254 18.0026 11.6908 17.8556 11.002C17.5086 9.3763 15.5593 8.73527 14.295 9.82289C14.0243 10.0558 13.7826 10.3224 13.5268 10.5728C13.4802 10.6184 13.4301 10.6605 13.3426 10.7393C13.3426 10.5933 13.3426 10.5082 13.3426 10.423C13.3426 9.17698 13.3438 7.931 13.342 6.68503C13.3412 6.14093 13.3559 5.59563 13.3258 5.05297C13.2435 3.568 11.7994 2.52942 10.3596 2.90365C9.27349 3.18593 8.56025 4.11856 8.55696 5.2803C8.55205 7.0132 8.55573 8.74612 8.55513 10.479C8.5551 10.5535 8.54876 10.628 8.54536 10.7025C8.52284 10.7172 8.50033 10.7319 8.47782 10.7466C8.19027 10.4398 7.92377 10.1094 7.61119 9.83064C6.71349 9.03015 5.27551 9.13487 4.50701 10.0358C3.77622 10.8926 3.839 12.1612 4.66572 12.9971C5.55198 13.8931 6.44772 14.7797 7.36081 15.6919Z" fill="#5189F6"/>
<path d="M7.35004 15.6812C6.44769 14.7797 5.55195 13.8931 4.6657 12.9971C3.83898 12.1612 3.7762 10.8926 4.50699 10.0358C5.27548 9.13487 6.71346 9.03015 7.61117 9.83064C7.92375 10.1094 8.19025 10.4398 8.47779 10.7466C8.50031 10.7319 8.52282 10.7172 8.54533 10.7025C8.54874 10.628 8.55508 10.5535 8.55511 10.479C8.55571 8.74612 8.55202 7.0132 8.55693 5.2803C8.56023 4.11856 9.27347 3.18593 10.3595 2.90365C11.7994 2.52942 13.2435 3.568 13.3258 5.05297C13.3559 5.59563 13.3412 6.14093 13.342 6.68503C13.3438 7.931 13.3426 9.17698 13.3426 10.423C13.3426 10.5082 13.3426 10.5933 13.3426 10.7393C13.4301 10.6605 13.4802 10.6184 13.5268 10.5728C13.7826 10.3224 14.0242 10.0558 14.295 9.82289C15.5593 8.73527 17.5086 9.3763 17.8556 11.002C18.0026 11.6908 17.8255 12.3254 17.3602 12.8606C17.1399 13.1141 16.8919 13.3437 16.6541 13.5818C15.1211 15.1172 13.5882 16.6528 12.0535 18.1865C11.5052 18.7345 10.8332 18.8428 10.2202 18.4764C10.0809 18.3931 9.95568 18.2801 9.83966 18.165C9.0111 17.343 8.18659 16.5168 7.35004 15.6812Z" fill="#F9FAFA"/>
</g>
<defs>
<clipPath id="clip0_2669_6498">
<rect width="22" height="22" fill="white" transform="matrix(-1 0 0 -1 22 22)"/>
</clipPath>
</defs>
</svg>
