<svg width="83" height="46" viewBox="0 0 83 46" fill="none" xmlns="http://www.w3.org/2000/svg">
<g clip-path="url(#clip0_0_4549)">
<g filter="url(#filter0_bd_0_4549)">
<mask id="path-1-inside-1_0_4549" fill="white">
<path fill-rule="evenodd" clip-rule="evenodd" d="M33.9149 27.3068C33.9439 27.3071 33.973 27.3073 34.0021 27.3073C38.1431 27.3073 41.5 24.042 41.5 20.014C41.5 15.9861 38.1431 12.7208 34.0021 12.7208C33.973 12.7208 33.9439 12.7209 33.9149 12.7213V12.7208H31.9779C32.0479 12.2217 32.084 11.7121 32.084 11.1943C32.084 5.01186 26.9316 0 20.5756 0C14.2197 0 9.06723 5.01186 9.06723 11.1943C9.06723 11.7777 9.1131 12.3506 9.20153 12.9099C8.65421 12.7862 8.08391 12.7208 7.4979 12.7208C3.35692 12.7208 0 15.9861 0 20.014C0 24.042 3.35692 27.3073 7.4979 27.3073C7.52713 27.3073 7.55631 27.3071 7.58546 27.3068L7.58506 27.3073H33.9149V27.3068Z"/>
</mask>
<path fill-rule="evenodd" clip-rule="evenodd" d="M33.9149 27.3068C33.9439 27.3071 33.973 27.3073 34.0021 27.3073C38.1431 27.3073 41.5 24.042 41.5 20.014C41.5 15.9861 38.1431 12.7208 34.0021 12.7208C33.973 12.7208 33.9439 12.7209 33.9149 12.7213V12.7208H31.9779C32.0479 12.2217 32.084 11.7121 32.084 11.1943C32.084 5.01186 26.9316 0 20.5756 0C14.2197 0 9.06723 5.01186 9.06723 11.1943C9.06723 11.7777 9.1131 12.3506 9.20153 12.9099C8.65421 12.7862 8.08391 12.7208 7.4979 12.7208C3.35692 12.7208 0 15.9861 0 20.014C0 24.042 3.35692 27.3073 7.4979 27.3073C7.52713 27.3073 7.55631 27.3071 7.58546 27.3068L7.58506 27.3073H33.9149V27.3068Z" fill="url(#paint0_linear_0_4549)" shape-rendering="crispEdges"/>
<path d="M33.9149 27.3068L33.9371 25.3069C33.4029 25.301 32.8885 25.5091 32.5086 25.8848C32.1287 26.2605 31.9149 26.7725 31.9149 27.3068H33.9149ZM33.9149 12.7213H31.9149C31.9149 13.2555 32.1287 13.7676 32.5085 14.1433C32.8884 14.519 33.4028 14.7271 33.9371 14.7211L33.9149 12.7213ZM33.9149 12.7208H35.9149C35.9149 11.6162 35.0195 10.7208 33.9149 10.7208V12.7208ZM31.9779 12.7208L29.9973 12.4431C29.9169 13.0164 30.0889 13.5964 30.4688 14.0332C30.8486 14.47 31.3991 14.7208 31.9779 14.7208V12.7208ZM9.20153 12.9099L8.76065 14.8607C9.40748 15.0068 10.0847 14.8229 10.5687 14.3696C11.0527 13.9163 11.2806 13.2525 11.177 12.5975L9.20153 12.9099ZM7.58546 27.3068L9.13824 28.5673C9.62694 27.9653 9.72362 27.135 9.38633 26.4368C9.04904 25.7386 8.33857 25.2983 7.56321 25.3069L7.58546 27.3068ZM7.58506 27.3073L6.03228 26.0468C5.54611 26.6457 5.4477 27.4708 5.77938 28.1672C6.11105 28.8637 6.81368 29.3073 7.58506 29.3073V27.3073ZM33.9149 27.3073V29.3073C35.0195 29.3073 35.9149 28.4119 35.9149 27.3073H33.9149ZM33.8927 29.3067C33.9292 29.3071 33.9656 29.3073 34.0021 29.3073V25.3073C33.9803 25.3073 33.9587 25.3072 33.9371 25.3069L33.8927 29.3067ZM34.0021 29.3073C39.1951 29.3073 43.5 25.1984 43.5 20.014H39.5C39.5 22.8856 37.091 25.3073 34.0021 25.3073V29.3073ZM43.5 20.014C43.5 14.8297 39.1951 10.7208 34.0021 10.7208V14.7208C37.091 14.7208 39.5 17.1425 39.5 20.014H43.5ZM34.0021 10.7208C33.9656 10.7208 33.9292 10.721 33.8928 10.7214L33.9371 14.7211C33.9587 14.7209 33.9804 14.7208 34.0021 14.7208V10.7208ZM31.9149 12.7208V12.7213H35.9149V12.7208H31.9149ZM31.9779 14.7208H33.9149V10.7208H31.9779V14.7208ZM33.9586 12.9984C34.0414 12.4076 34.084 11.8053 34.084 11.1943H30.084C30.084 11.6189 30.0544 12.0357 29.9973 12.4431L33.9586 12.9984ZM34.084 11.1943C34.084 3.85548 27.9836 -2 20.5756 -2V2C25.8795 2 30.084 6.16824 30.084 11.1943H34.084ZM20.5756 -2C13.1677 -2 7.06723 3.85548 7.06723 11.1943H11.0672C11.0672 6.16824 15.2718 2 20.5756 2V-2ZM7.06723 11.1943C7.06723 11.8827 7.12137 12.56 7.22607 13.2222L11.177 12.5975C11.1048 12.1411 11.0672 11.6726 11.0672 11.1943H7.06723ZM9.64241 10.9591C8.95124 10.8029 8.23308 10.7208 7.4979 10.7208V14.7208C7.93474 14.7208 8.35719 14.7695 8.76065 14.8607L9.64241 10.9591ZM7.4979 10.7208C2.30489 10.7208 -2 14.8297 -2 20.014H2C2 17.1425 4.40896 14.7208 7.4979 14.7208V10.7208ZM-2 20.014C-2 25.1984 2.30489 29.3073 7.4979 29.3073V25.3073C4.40896 25.3073 2 22.8856 2 20.014H-2ZM7.4979 29.3073C7.53452 29.3073 7.57112 29.3071 7.60771 29.3067L7.56321 25.3069C7.5415 25.3072 7.51973 25.3073 7.4979 25.3073V29.3073ZM9.13785 28.5678L9.13824 28.5673L6.03267 26.0463L6.03228 26.0468L9.13785 28.5678ZM33.9149 25.3073H7.58506V29.3073H33.9149V25.3073ZM31.9149 27.3068V27.3073H35.9149V27.3068H31.9149Z" fill="url(#paint1_linear_0_4549)" mask="url(#path-1-inside-1_0_4549)"/>
</g>
<g filter="url(#filter1_bd_0_4549)">
<mask id="path-3-inside-2_0_4549" fill="white">
<path fill-rule="evenodd" clip-rule="evenodd" d="M56.5799 45.9993C56.6201 45.9998 56.6603 46 56.7006 46C62.4306 46 67.0756 41.4817 67.0756 35.9082C67.0756 30.3346 62.4306 25.8163 56.7006 25.8163C56.6603 25.8163 56.6201 25.8166 56.5799 25.817V25.8163H53.8997C53.9965 25.1257 54.0465 24.4206 54.0465 23.7041C54.0465 15.1493 46.9169 8.21426 38.1221 8.21426C29.3273 8.21426 22.1977 15.1493 22.1977 23.7041C22.1977 24.5113 22.2611 25.3041 22.3835 26.078C21.6262 25.9068 20.837 25.8163 20.0261 25.8163C14.2962 25.8163 9.65112 30.3346 9.65112 35.9082C9.65112 41.4817 14.2962 46 20.0261 46C20.0666 46 20.107 45.9998 20.1473 45.9993L20.1468 46H56.5799V45.9993Z"/>
</mask>
<path fill-rule="evenodd" clip-rule="evenodd" d="M56.5799 45.9993C56.6201 45.9998 56.6603 46 56.7006 46C62.4306 46 67.0756 41.4817 67.0756 35.9082C67.0756 30.3346 62.4306 25.8163 56.7006 25.8163C56.6603 25.8163 56.6201 25.8166 56.5799 25.817V25.8163H53.8997C53.9965 25.1257 54.0465 24.4206 54.0465 23.7041C54.0465 15.1493 46.9169 8.21426 38.1221 8.21426C29.3273 8.21426 22.1977 15.1493 22.1977 23.7041C22.1977 24.5113 22.2611 25.3041 22.3835 26.078C21.6262 25.9068 20.837 25.8163 20.0261 25.8163C14.2962 25.8163 9.65112 30.3346 9.65112 35.9082C9.65112 41.4817 14.2962 46 20.0261 46C20.0666 46 20.107 45.9998 20.1473 45.9993L20.1468 46H56.5799V45.9993Z" fill="url(#paint2_linear_0_4549)" shape-rendering="crispEdges"/>
<path d="M56.5799 45.9993L56.6021 43.9995C56.0679 43.9935 55.5535 44.2016 55.1736 44.5773C54.7937 44.953 54.5799 45.4651 54.5799 45.9993H56.5799ZM56.5799 25.817H54.5799C54.5799 26.3513 54.7937 26.8634 55.1736 27.2391C55.5535 27.6147 56.0679 27.8228 56.6021 27.8169L56.5799 25.817ZM56.5799 25.8163H58.5799C58.5799 24.7118 57.6845 23.8163 56.5799 23.8163V25.8163ZM53.8997 25.8163L51.9191 25.5387C51.8387 26.1119 52.0107 26.6919 52.3905 27.1287C52.7703 27.5655 53.3208 27.8163 53.8997 27.8163V25.8163ZM22.3835 26.078L21.9426 28.0288C22.5895 28.175 23.2667 27.991 23.7507 27.5377C24.2347 27.0844 24.4625 26.4206 24.359 25.7656L22.3835 26.078ZM20.1473 45.9993L21.702 47.2575C22.1894 46.6552 22.2851 45.8255 21.9475 45.128C21.6099 44.4305 20.8998 43.9908 20.125 43.9995L20.1473 45.9993ZM20.1468 46L18.5921 44.7418C18.1072 45.341 18.0098 46.1656 18.3417 46.8613C18.6737 47.557 19.3759 48 20.1468 48V46ZM56.5799 46V48C57.6845 48 58.5799 47.1046 58.5799 46H56.5799ZM56.5577 47.9992C56.6054 47.9997 56.653 48 56.7006 48V44C56.6676 44 56.6348 43.9998 56.6021 43.9995L56.5577 47.9992ZM56.7006 48C63.4826 48 69.0756 42.6381 69.0756 35.9082H65.0756C65.0756 40.3254 61.3785 44 56.7006 44V48ZM69.0756 35.9082C69.0756 29.1782 63.4826 23.8163 56.7006 23.8163V27.8163C61.3785 27.8163 65.0756 31.491 65.0756 35.9082H69.0756ZM56.7006 23.8163C56.6529 23.8163 56.6053 23.8166 56.5577 23.8171L56.6021 27.8169C56.6349 27.8165 56.6677 27.8163 56.7006 27.8163V23.8163ZM54.5799 25.8163V25.817H58.5799V25.8163H54.5799ZM53.8997 27.8163H56.5799V23.8163H53.8997V27.8163ZM55.8803 26.094C55.99 25.3117 56.0465 24.5137 56.0465 23.7041H52.0465C52.0465 24.3274 52.003 24.9397 51.9191 25.5387L55.8803 26.094ZM56.0465 23.7041C56.0465 13.9929 47.9689 6.21426 38.1221 6.21426V10.2143C45.8649 10.2143 52.0465 16.3057 52.0465 23.7041H56.0465ZM38.1221 6.21426C28.2752 6.21426 20.1977 13.9929 20.1977 23.7041H24.1977C24.1977 16.3057 30.3793 10.2143 38.1221 10.2143V6.21426ZM20.1977 23.7041C20.1977 24.6163 20.2694 25.5135 20.4081 26.3903L24.359 25.7656C24.2529 25.0946 24.1977 24.4062 24.1977 23.7041H20.1977ZM22.8244 24.1272C21.9232 23.9235 20.9862 23.8163 20.0261 23.8163V27.8163C20.6878 27.8163 21.3291 27.8901 21.9426 28.0288L22.8244 24.1272ZM20.0261 23.8163C13.2441 23.8163 7.65112 29.1782 7.65112 35.9082H11.6511C11.6511 31.491 15.3482 27.8163 20.0261 27.8163V23.8163ZM7.65112 35.9082C7.65112 42.6381 13.2441 48 20.0261 48V44C15.3482 44 11.6511 40.3254 11.6511 35.9082H7.65112ZM20.0261 48C20.074 48 20.1218 47.9997 20.1696 47.9992L20.125 43.9995C20.0921 43.9998 20.0592 44 20.0261 44V48ZM21.7014 47.2582L21.702 47.2575L18.5927 44.7411L18.5921 44.7418L21.7014 47.2582ZM56.5799 44H20.1468V48H56.5799V44ZM54.5799 45.9993V46H58.5799V45.9993H54.5799Z" fill="url(#paint3_linear_0_4549)" mask="url(#path-3-inside-2_0_4549)"/>
</g>
<g filter="url(#filter2_bd_0_4549)">
<mask id="path-5-inside-3_0_4549" fill="white">
<path fill-rule="evenodd" clip-rule="evenodd" d="M75.415 35.5211C75.444 35.5215 75.473 35.5216 75.5021 35.5216C79.6431 35.5216 83 32.2563 83 28.2284C83 24.2004 79.6431 20.9351 75.5021 20.9351C75.473 20.9351 75.444 20.9353 75.415 20.9356V20.9351H73.4779C73.5479 20.436 73.584 19.9264 73.584 19.4086C73.584 13.2261 68.4316 8.21426 62.0756 8.21426C55.7197 8.21426 50.5672 13.2261 50.5672 19.4086C50.5672 19.9919 50.6131 20.5649 50.7015 21.1242C50.1542 21.0005 49.5839 20.9351 48.9979 20.9351C44.8569 20.9351 41.5 24.2004 41.5 28.2284C41.5 32.2563 44.8569 35.5216 48.9979 35.5216C49.0271 35.5216 49.0564 35.5215 49.0855 35.5211L49.0851 35.5216H75.415V35.5211Z"/>
</mask>
<path fill-rule="evenodd" clip-rule="evenodd" d="M75.415 35.5211C75.444 35.5215 75.473 35.5216 75.5021 35.5216C79.6431 35.5216 83 32.2563 83 28.2284C83 24.2004 79.6431 20.9351 75.5021 20.9351C75.473 20.9351 75.444 20.9353 75.415 20.9356V20.9351H73.4779C73.5479 20.436 73.584 19.9264 73.584 19.4086C73.584 13.2261 68.4316 8.21426 62.0756 8.21426C55.7197 8.21426 50.5672 13.2261 50.5672 19.4086C50.5672 19.9919 50.6131 20.5649 50.7015 21.1242C50.1542 21.0005 49.5839 20.9351 48.9979 20.9351C44.8569 20.9351 41.5 24.2004 41.5 28.2284C41.5 32.2563 44.8569 35.5216 48.9979 35.5216C49.0271 35.5216 49.0564 35.5215 49.0855 35.5211L49.0851 35.5216H75.415V35.5211Z" fill="url(#paint4_linear_0_4549)" shape-rendering="crispEdges"/>
<path d="M75.415 35.5211L75.4371 33.5213C74.9028 33.5154 74.3884 33.7234 74.0086 34.0991C73.6287 34.4748 73.415 34.9869 73.415 35.5211H75.415ZM75.415 20.9356H73.415C73.415 21.4699 73.6287 21.9819 74.0086 22.3576C74.3885 22.7333 74.9029 22.9414 75.4371 22.9355L75.415 20.9356ZM75.415 20.9351H77.415C77.415 19.8305 76.5195 18.9351 75.415 18.9351V20.9351ZM73.4779 20.9351L71.4973 20.6575C71.4169 21.2307 71.5889 21.8107 71.9687 22.2475C72.3486 22.6843 72.8991 22.9351 73.4779 22.9351V20.9351ZM50.7015 21.1242L50.2607 23.075C50.9075 23.2212 51.5847 23.0372 52.0687 22.5839C52.5527 22.1306 52.7806 21.4668 52.677 20.8118L50.7015 21.1242ZM49.0855 35.5211L50.64 36.7796C51.1276 36.1773 51.2234 35.3475 50.8858 34.65C50.5483 33.9524 49.8382 33.5126 49.0633 33.5213L49.0855 35.5211ZM49.0851 35.5216L47.5307 34.2632C47.0456 34.8623 46.9481 35.687 47.28 36.3828C47.6119 37.0785 48.3142 37.5216 49.0851 37.5216V35.5216ZM75.415 35.5216V37.5216C76.5195 37.5216 77.415 36.6262 77.415 35.5216H75.415ZM75.3929 37.521C75.4292 37.5214 75.4656 37.5216 75.5021 37.5216V33.5216C75.4804 33.5216 75.4588 33.5215 75.4371 33.5213L75.3929 37.521ZM75.5021 37.5216C80.6951 37.5216 85 33.4127 85 28.2284H81C81 31.0999 78.591 33.5216 75.5021 33.5216V37.5216ZM85 28.2284C85 23.044 80.6951 18.9351 75.5021 18.9351V22.9351C78.591 22.9351 81 25.3568 81 28.2284H85ZM75.5021 18.9351C75.4656 18.9351 75.4292 18.9353 75.3928 18.9357L75.4371 22.9355C75.4587 22.9352 75.4804 22.9351 75.5021 22.9351V18.9351ZM73.415 20.9351V20.9356H77.415V20.9351H73.415ZM73.4779 22.9351H75.415V18.9351H73.4779V22.9351ZM75.4586 21.2128C75.5414 20.6219 75.584 20.0196 75.584 19.4086H71.584C71.584 19.8332 71.5544 20.25 71.4973 20.6575L75.4586 21.2128ZM75.584 19.4086C75.584 12.0697 69.4836 6.21426 62.0756 6.21426V10.2143C67.3795 10.2143 71.584 14.3825 71.584 19.4086H75.584ZM62.0756 6.21426C54.6677 6.21426 48.5672 12.0697 48.5672 19.4086H52.5672C52.5672 14.3825 56.7718 10.2143 62.0756 10.2143V6.21426ZM48.5672 19.4086C48.5672 20.097 48.6214 20.7744 48.7261 21.4365L52.677 20.8118C52.6048 20.3554 52.5672 19.8869 52.5672 19.4086H48.5672ZM51.1424 19.1734C50.4512 19.0172 49.7331 18.9351 48.9979 18.9351V22.9351C49.4347 22.9351 49.8572 22.9838 50.2607 23.075L51.1424 19.1734ZM48.9979 18.9351C43.8049 18.9351 39.5 23.044 39.5 28.2284H43.5C43.5 25.3568 45.909 22.9351 48.9979 22.9351V18.9351ZM39.5 28.2284C39.5 33.4127 43.8049 37.5216 48.9979 37.5216V33.5216C45.909 33.5216 43.5 31.0999 43.5 28.2284H39.5ZM48.9979 37.5216C49.0346 37.5216 49.0712 37.5214 49.1078 37.521L49.0633 33.5213C49.0415 33.5215 49.0197 33.5216 48.9979 33.5216V37.5216ZM50.6396 36.7801L50.64 36.7796L47.5311 34.2627L47.5307 34.2632L50.6396 36.7801ZM75.415 33.5216H49.0851V37.5216H75.415V33.5216ZM73.415 35.5211V35.5216H77.415V35.5211H73.415Z" fill="url(#paint5_linear_0_4549)" mask="url(#path-5-inside-3_0_4549)"/>
</g>
</g>
<defs>
<filter id="filter0_bd_0_4549" x="-71" y="-35" width="141.5" height="127.307" filterUnits="userSpaceOnUse" color-interpolation-filters="sRGB">
<feFlood flood-opacity="0" result="BackgroundImageFix"/>
<feGaussianBlur in="BackgroundImageFix" stdDeviation="7"/>
<feComposite in2="SourceAlpha" operator="in" result="effect1_backgroundBlur_0_4549"/>
<feColorMatrix in="SourceAlpha" type="matrix" values="0 0 0 0 0 0 0 0 0 0 0 0 0 0 0 0 0 0 127 0" result="hardAlpha"/>
<feOffset dx="-21" dy="15"/>
<feGaussianBlur stdDeviation="25"/>
<feComposite in2="hardAlpha" operator="out"/>
<feColorMatrix type="matrix" values="0 0 0 0 0.113438 0 0 0 0 0.148981 0 0 0 0 0.275 0 0 0 0.25 0"/>
<feBlend mode="normal" in2="effect1_backgroundBlur_0_4549" result="effect2_dropShadow_0_4549"/>
<feBlend mode="normal" in="SourceGraphic" in2="effect2_dropShadow_0_4549" result="shape"/>
</filter>
<filter id="filter1_bd_0_4549" x="-61.3489" y="-26.7857" width="157.424" height="137.786" filterUnits="userSpaceOnUse" color-interpolation-filters="sRGB">
<feFlood flood-opacity="0" result="BackgroundImageFix"/>
<feGaussianBlur in="BackgroundImageFix" stdDeviation="7"/>
<feComposite in2="SourceAlpha" operator="in" result="effect1_backgroundBlur_0_4549"/>
<feColorMatrix in="SourceAlpha" type="matrix" values="0 0 0 0 0 0 0 0 0 0 0 0 0 0 0 0 0 0 127 0" result="hardAlpha"/>
<feOffset dx="-21" dy="15"/>
<feGaussianBlur stdDeviation="25"/>
<feComposite in2="hardAlpha" operator="out"/>
<feColorMatrix type="matrix" values="0 0 0 0 0.113725 0 0 0 0 0.14902 0 0 0 0 0.27451 0 0 0 0.25 0"/>
<feBlend mode="normal" in2="effect1_backgroundBlur_0_4549" result="effect2_dropShadow_0_4549"/>
<feBlend mode="normal" in="SourceGraphic" in2="effect2_dropShadow_0_4549" result="shape"/>
</filter>
<filter id="filter2_bd_0_4549" x="-29.5" y="-26.7857" width="141.5" height="127.307" filterUnits="userSpaceOnUse" color-interpolation-filters="sRGB">
<feFlood flood-opacity="0" result="BackgroundImageFix"/>
<feGaussianBlur in="BackgroundImageFix" stdDeviation="7"/>
<feComposite in2="SourceAlpha" operator="in" result="effect1_backgroundBlur_0_4549"/>
<feColorMatrix in="SourceAlpha" type="matrix" values="0 0 0 0 0 0 0 0 0 0 0 0 0 0 0 0 0 0 127 0" result="hardAlpha"/>
<feOffset dx="-21" dy="15"/>
<feGaussianBlur stdDeviation="25"/>
<feComposite in2="hardAlpha" operator="out"/>
<feColorMatrix type="matrix" values="0 0 0 0 0.113438 0 0 0 0 0.148981 0 0 0 0 0.275 0 0 0 0.25 0"/>
<feBlend mode="normal" in2="effect1_backgroundBlur_0_4549" result="effect2_dropShadow_0_4549"/>
<feBlend mode="normal" in="SourceGraphic" in2="effect2_dropShadow_0_4549" result="shape"/>
</filter>
<linearGradient id="paint0_linear_0_4549" x1="22.6802" y1="0.821428" x2="22.6802" y2="30.3928" gradientUnits="userSpaceOnUse">
<stop stop-color="white"/>
<stop offset="1" stop-color="white" stop-opacity="0"/>
</linearGradient>
<linearGradient id="paint1_linear_0_4549" x1="20.75" y1="0" x2="20.75" y2="27.3073" gradientUnits="userSpaceOnUse">
<stop stop-color="white"/>
<stop offset="1" stop-color="white" stop-opacity="0"/>
</linearGradient>
<linearGradient id="paint2_linear_0_4549" x1="38.3633" y1="-3.87247" x2="38.3633" y2="51.2806" gradientUnits="userSpaceOnUse">
<stop stop-color="white"/>
<stop offset="1" stop-color="white" stop-opacity="0"/>
</linearGradient>
<linearGradient id="paint3_linear_0_4549" x1="38.3633" y1="8.21426" x2="38.3633" y2="46" gradientUnits="userSpaceOnUse">
<stop stop-color="white"/>
<stop offset="1" stop-color="white" stop-opacity="0"/>
</linearGradient>
<linearGradient id="paint4_linear_0_4549" x1="64.1802" y1="9.03569" x2="64.1802" y2="38.6071" gradientUnits="userSpaceOnUse">
<stop stop-color="white"/>
<stop offset="1" stop-color="white" stop-opacity="0"/>
</linearGradient>
<linearGradient id="paint5_linear_0_4549" x1="62.25" y1="8.21426" x2="62.25" y2="35.5216" gradientUnits="userSpaceOnUse">
<stop stop-color="white"/>
<stop offset="1" stop-color="white" stop-opacity="0"/>
</linearGradient>
<clipPath id="clip0_0_4549">
<rect width="83" height="46" fill="white"/>
</clipPath>
</defs>
</svg>
