<svg width="60" height="58" viewBox="0 0 60 58" fill="none" xmlns="http://www.w3.org/2000/svg">
<path fill-rule="evenodd" clip-rule="evenodd" d="M32.8342 13.4842C32.7324 12.8386 31.8172 12.8386 31.7155 13.4842C31.6327 14.0096 30.948 14.1423 30.6711 13.6906C30.3326 13.1384 29.484 13.4818 29.6369 14.1134C29.7616 14.6287 29.1785 15.0168 28.7535 14.7081C28.2355 14.3319 27.5791 14.9723 27.9585 15.4917C28.2689 15.9166 27.88 16.5015 27.3731 16.3795C26.7552 16.2308 26.3958 17.0762 26.9403 17.408C27.3863 17.6798 27.2527 18.3691 26.7386 18.4497C26.1101 18.5482 26.1101 19.4678 26.7386 19.5663C27.2527 19.6468 27.3863 20.3362 26.9403 20.6079C26.3958 20.9397 26.7552 21.7852 27.3731 21.6365C27.88 21.5145 28.2689 22.0994 27.9585 22.5242C27.5791 23.0436 28.2355 23.6841 28.7535 23.3078C29.1785 22.9992 29.7616 23.3873 29.6369 23.9025C29.484 24.5341 30.3326 24.8776 30.6711 24.3254C30.948 23.8737 31.6327 24.0063 31.7155 24.5317C31.8172 25.1774 32.7324 25.1774 32.8342 24.5317C32.917 24.0063 33.6017 23.8737 33.8785 24.3254C34.217 24.8776 35.0656 24.5341 34.9128 23.9025C34.788 23.3873 35.3711 22.9992 35.7961 23.3078C36.3142 23.6841 36.9706 23.0436 36.5911 22.5242C36.2808 22.0994 36.6696 21.5145 37.1766 21.6365C37.7944 21.7852 38.1538 20.9397 37.6094 20.6079C37.1634 20.3362 37.2969 19.6468 37.811 19.5663C38.4395 19.4678 38.4395 18.5482 37.811 18.4497C37.2969 18.3691 37.1634 17.6798 37.6094 17.408C38.1538 17.0762 37.7944 16.2308 37.1766 16.3795C36.6696 16.5015 36.2808 15.9166 36.5911 15.4917C36.9706 14.9723 36.3142 14.3319 35.7961 14.7081C35.3711 15.0168 34.788 14.6287 34.9128 14.1134C35.0656 13.4818 34.217 13.1384 33.8785 13.6906C33.6017 14.1423 32.917 14.0096 32.8342 13.4842ZM17.9398 19.5203C17.8991 19.262 17.533 19.262 17.4923 19.5203C17.4592 19.7304 17.1853 19.7835 17.0746 19.6028C16.9392 19.3819 16.5997 19.5193 16.6609 19.7719C16.7108 19.978 16.4776 20.1333 16.3075 20.0098C16.1003 19.8593 15.8378 20.1155 15.9895 20.3232C16.1137 20.4932 15.9582 20.7272 15.7554 20.6784C15.5082 20.6189 15.3645 20.9571 15.5823 21.0898C15.7607 21.1985 15.7072 21.4742 15.5016 21.5064C15.2502 21.5458 15.2502 21.9137 15.5016 21.9531C15.7072 21.9853 15.7607 22.261 15.5823 22.3697C15.3645 22.5025 15.5082 22.8406 15.7554 22.7812C15.9582 22.7324 16.1137 22.9663 15.9895 23.1363C15.8378 23.344 16.1003 23.6002 16.3075 23.4497C16.4776 23.3262 16.7108 23.4815 16.6609 23.6876C16.5997 23.9402 16.9392 24.0776 17.0746 23.8567C17.1853 23.676 17.4592 23.7291 17.4923 23.9392C17.533 24.1975 17.8991 24.1975 17.9398 23.9392C17.9729 23.7291 18.2468 23.676 18.3576 23.8567C18.493 24.0776 18.8324 23.9402 18.7713 23.6876C18.7214 23.4815 18.9546 23.3262 19.1246 23.4497C19.3318 23.6002 19.5944 23.344 19.4426 23.1363C19.3185 22.9663 19.474 22.7324 19.6768 22.7812C19.9239 22.8406 20.0677 22.5025 19.8499 22.3697C19.6715 22.261 19.7249 21.9853 19.9305 21.9531C20.182 21.9137 20.182 21.5458 19.9305 21.5064C19.7249 21.4742 19.6715 21.1985 19.8499 21.0898C20.0677 20.9571 19.9239 20.6189 19.6768 20.6784C19.474 20.7272 19.3185 20.4932 19.4426 20.3232C19.5944 20.1155 19.3318 19.8593 19.1246 20.0098C18.9546 20.1333 18.7214 19.978 18.7713 19.7719C18.8324 19.5193 18.493 19.3819 18.3576 19.6028C18.2468 19.7835 17.9729 19.7304 17.9398 19.5203ZM42.0603 24.0566C42.101 23.7983 42.4671 23.7983 42.5078 24.0566C42.5409 24.2667 42.8148 24.3198 42.9255 24.1391C43.0609 23.9182 43.4004 24.0556 43.3392 24.3083C43.2893 24.5144 43.5226 24.6696 43.6926 24.5461C43.8998 24.3956 44.1623 24.6518 44.0106 24.8596C43.8864 25.0295 44.042 25.2635 44.2447 25.2147C44.4919 25.1552 44.6357 25.4934 44.4179 25.6261C44.2395 25.7348 44.2929 26.0105 44.4985 26.0428C44.7499 26.0822 44.7499 26.45 44.4985 26.4894C44.2929 26.5216 44.2395 26.7974 44.4179 26.9061C44.6357 27.0388 44.4919 27.377 44.2447 27.3175C44.042 27.2687 43.8864 27.5026 44.0106 27.6726C44.1623 27.8803 43.8998 28.1365 43.6926 27.986C43.5226 27.8626 43.2893 28.0178 43.3392 28.2239C43.4004 28.4765 43.0609 28.6139 42.9255 28.393C42.8148 28.2124 42.5409 28.2654 42.5078 28.4756C42.4671 28.7338 42.101 28.7338 42.0603 28.4756C42.0272 28.2654 41.7533 28.2124 41.6426 28.393C41.5072 28.6139 41.1677 28.4765 41.2289 28.2239C41.2788 28.0178 41.0455 27.8626 40.8755 27.986C40.6683 28.1365 40.4058 27.8803 40.5575 27.6726C40.6817 27.5026 40.5261 27.2687 40.3234 27.3175C40.0762 27.377 39.9324 27.0388 40.1502 26.9061C40.3286 26.7974 40.2752 26.5216 40.0696 26.4894C39.8182 26.45 39.8182 26.0822 40.0696 26.0428C40.2752 26.0105 40.3286 25.7348 40.1502 25.6261C39.9324 25.4934 40.0762 25.1552 40.3234 25.2147C40.5261 25.2635 40.6817 25.0295 40.5575 24.8596C40.4058 24.6518 40.6683 24.3956 40.8755 24.5461C41.0455 24.6696 41.2788 24.5144 41.2289 24.3083C41.1677 24.0556 41.5072 23.9182 41.6426 24.1391C41.7533 24.3198 42.0272 24.2667 42.0603 24.0566ZM27.9489 40.3873C27.9082 40.1291 27.5421 40.1291 27.5014 40.3873C27.4683 40.5975 27.1944 40.6505 27.0837 40.4699C26.9483 40.249 26.6088 40.3864 26.67 40.639C26.7199 40.8451 26.4867 41.0003 26.3166 40.8769C26.1094 40.7264 25.8469 40.9826 25.9986 41.1903C26.1228 41.3603 25.9673 41.5942 25.7645 41.5454C25.5173 41.4859 25.3736 41.8241 25.5913 41.9568C25.7697 42.0655 25.7163 42.3413 25.5107 42.3735C25.2593 42.4129 25.2593 42.7807 25.5107 42.8201C25.7163 42.8524 25.7697 43.1281 25.5913 43.2368C25.3736 43.3695 25.5173 43.7077 25.7645 43.6482C25.9673 43.5994 26.1228 43.8334 25.9986 44.0033C25.8469 44.2111 26.1094 44.4673 26.3166 44.3168C26.4867 44.1933 26.7199 44.3485 26.67 44.5546C26.6088 44.8073 26.9483 44.9447 27.0837 44.7238C27.1944 44.5431 27.4683 44.5962 27.5014 44.8063C27.5421 45.0646 27.9082 45.0646 27.9489 44.8063C27.982 44.5962 28.2559 44.5431 28.3667 44.7238C28.502 44.9447 28.8415 44.8073 28.7803 44.5546C28.7305 44.3485 28.9637 44.1933 29.1337 44.3168C29.3409 44.4673 29.6035 44.2111 29.4517 44.0033C29.3276 43.8334 29.4831 43.5994 29.6859 43.6482C29.933 43.7077 30.0768 43.3695 29.859 43.2368C29.6806 43.1281 29.734 42.8524 29.9396 42.8201C30.1911 42.7807 30.1911 42.4129 29.9396 42.3735C29.734 42.3413 29.6806 42.0655 29.859 41.9568C30.0768 41.8241 29.933 41.4859 29.6859 41.5454C29.4831 41.5942 29.3276 41.3603 29.4517 41.1903C29.6035 40.9826 29.3409 40.7264 29.1337 40.8769C28.9637 41.0003 28.7305 40.8451 28.7803 40.639C28.8415 40.3864 28.502 40.249 28.3667 40.4699C28.2559 40.6505 27.982 40.5975 27.9489 40.3873ZM31.0293 29.3027C31.0904 28.9153 31.6395 28.9153 31.7005 29.3027C31.7502 29.6179 32.161 29.6975 32.3272 29.4265C32.5303 29.0951 33.0394 29.3012 32.9477 29.6802C32.8729 29.9893 33.2227 30.2222 33.4777 30.037C33.7885 29.8113 34.1824 30.1955 33.9547 30.5071C33.7685 30.7621 34.0018 31.113 34.306 31.0398C34.6767 30.9506 34.8924 31.4579 34.5657 31.6569C34.2981 31.82 34.3782 32.2336 34.6866 32.2819C35.0638 32.341 35.0638 32.8928 34.6866 32.9519C34.3782 33.0002 34.2981 33.4138 34.5657 33.5769C34.8924 33.776 34.6767 34.2832 34.306 34.194C34.0018 34.1208 33.7685 34.4718 33.9547 34.7267C34.1824 35.0383 33.7885 35.4226 33.4777 35.1968C33.2227 35.0116 32.8729 35.2445 32.9477 35.5536C33.0394 35.9326 32.5303 36.1387 32.3272 35.8074C32.161 35.5363 31.7502 35.6159 31.7005 35.9311C31.6395 36.3185 31.0904 36.3185 31.0293 35.9311C30.9797 35.6159 30.5688 35.5363 30.4027 35.8074C30.1996 36.1387 29.6904 35.9326 29.7822 35.5536C29.857 35.2445 29.5072 35.0116 29.2521 35.1968C28.9413 35.4226 28.5475 35.0383 28.7751 34.7267C28.9614 34.4718 28.7281 34.1208 28.4239 34.194C28.0532 34.2832 27.8375 33.776 28.1642 33.5769C28.4318 33.4138 28.3517 33.0002 28.0432 32.9519C27.6661 32.8928 27.6661 32.341 28.0432 32.2819C28.3517 32.2336 28.4318 31.82 28.1642 31.6569C27.8375 31.4579 28.0532 30.9506 28.4239 31.0398C28.7281 31.113 28.9614 30.7621 28.7751 30.5071C28.5475 30.1955 28.9413 29.8113 29.2521 30.037C29.5072 30.2222 29.857 29.9893 29.7822 29.6802C29.6904 29.3012 30.1996 29.0951 30.4027 29.4265C30.5688 29.6975 30.9797 29.6179 31.0293 29.3027ZM43.6414 32.7343C43.56 32.2177 42.8279 32.2177 42.7464 32.7343C42.6802 33.1545 42.1324 33.2607 41.9109 32.8993C41.6402 32.4575 40.9613 32.7323 41.0836 33.2376C41.1833 33.6498 40.7169 33.9603 40.3769 33.7133C39.9624 33.4124 39.4373 33.9247 39.7409 34.3402C39.9892 34.6801 39.6781 35.148 39.2725 35.0504C38.7782 34.9315 38.4907 35.6078 38.9263 35.8733C39.2831 36.0907 39.1763 36.6422 38.765 36.7066C38.2621 36.7854 38.2621 37.5211 38.765 37.5999C39.1763 37.6643 39.2831 38.2158 38.9263 38.4332C38.4907 38.6986 38.7782 39.375 39.2725 39.256C39.6781 39.1584 39.9892 39.6264 39.7409 39.9663C39.4373 40.3818 39.9624 40.8941 40.3769 40.5931C40.7169 40.3462 41.1833 40.6567 41.0836 41.0689C40.9613 41.5742 41.6402 41.8489 41.9109 41.4072C42.1324 41.0458 42.6802 41.1519 42.7464 41.5722C42.8279 42.0887 43.56 42.0887 43.6414 41.5722C43.7076 41.1519 44.2554 41.0458 44.4769 41.4072C44.7477 41.8489 45.4266 41.5742 45.3043 41.0689C45.2045 40.6567 45.671 40.3462 46.011 40.5931C46.4254 40.8941 46.9505 40.3818 46.647 39.9663C46.3987 39.6264 46.7097 39.1584 47.1153 39.256C47.6096 39.375 47.8971 38.6986 47.4616 38.4332C47.1048 38.2158 47.2116 37.6643 47.6229 37.5999C48.1257 37.5211 48.1257 36.7854 47.6229 36.7066C47.2116 36.6422 47.1048 36.0907 47.4616 35.8733C47.8972 35.6078 47.6096 34.9315 47.1153 35.0504C46.7097 35.148 46.3987 34.6801 46.647 34.3402C46.9505 33.9247 46.4254 33.4124 46.011 33.7133C45.671 33.9603 45.2045 33.6498 45.3043 33.2376C45.4266 32.7323 44.7477 32.4575 44.4769 32.8993C44.2554 33.2607 43.7076 33.1545 43.6414 32.7343ZM16.3586 30.0125C16.44 29.4959 17.1721 29.4959 17.2536 30.0125C17.3198 30.4327 17.8676 30.5389 18.089 30.1775C18.3598 29.7358 19.0387 30.0105 18.9164 30.5158C18.8167 30.928 19.2831 31.2385 19.6231 30.9915C20.0376 30.6906 20.5627 31.2029 20.2591 31.6184C20.0108 31.9583 20.3219 32.4262 20.7275 32.3286C21.2218 32.2097 21.5093 32.886 21.0737 33.1515C20.7169 33.3689 20.8237 33.9204 21.235 33.9848C21.7379 34.0636 21.7379 34.7993 21.235 34.8781C20.8237 34.9425 20.7169 35.494 21.0737 35.7114C21.5093 35.9768 21.2218 36.6532 20.7275 36.5342C20.3219 36.4366 20.0108 36.9046 20.2591 37.2445C20.5627 37.66 20.0376 38.1723 19.6231 37.8713C19.2831 37.6244 18.8167 37.9349 18.9164 38.3471C19.0387 38.8524 18.3598 39.1271 18.089 38.6854C17.8676 38.324 17.3198 38.4301 17.2536 38.8504C17.1721 39.3669 16.44 39.3669 16.3586 38.8504C16.2924 38.4301 15.7446 38.324 15.5231 38.6854C15.2523 39.1271 14.5734 38.8524 14.6957 38.3471C14.7955 37.9349 14.329 37.6244 13.989 37.8713C13.5746 38.1723 13.0495 37.66 13.353 37.2445C13.6013 36.9046 13.2903 36.4366 12.8847 36.5342C12.3904 36.6532 12.1029 35.9768 12.5384 35.7114C12.8952 35.494 12.7884 34.9425 12.3771 34.8781C11.8743 34.7993 11.8743 34.0636 12.3771 33.9848C12.7884 33.9204 12.8952 33.3689 12.5384 33.1515C12.1029 32.886 12.3904 32.2097 12.8847 32.3286C13.2903 32.4262 13.6013 31.9583 13.353 31.6184C13.0495 31.2029 13.5746 30.6906 13.989 30.9915C14.329 31.2385 14.7955 30.928 14.6957 30.5158C14.5734 30.0105 15.2523 29.7358 15.5231 30.1775C15.7446 30.5389 16.2924 30.4327 16.3586 30.0125Z" fill="white"/>
</svg>
