<svg width="44" height="44" viewBox="0 0 44 44" fill="none" xmlns="http://www.w3.org/2000/svg">
<path d="M29.9 22.66C29.7397 22.4775 29.6513 22.2429 29.6513 22C29.6513 21.7571 29.7397 21.5225 29.9 21.34L31.18 19.9C31.3211 19.7427 31.4086 19.5447 31.4302 19.3345C31.4518 19.1243 31.4062 18.9127 31.3 18.73L29.3 15.27C29.1949 15.0875 29.0349 14.9429 28.8428 14.8567C28.6506 14.7705 28.4362 14.7472 28.23 14.79L26.35 15.17C26.1108 15.2194 25.8618 15.1796 25.6499 15.058C25.438 14.9364 25.278 14.7415 25.2 14.51L24.59 12.68C24.5229 12.4814 24.3951 12.3089 24.2246 12.1869C24.0542 12.0648 23.8497 11.9995 23.64 12H19.64C19.422 11.9886 19.2062 12.0489 19.0256 12.1717C18.845 12.2945 18.7096 12.473 18.64 12.68L18.08 14.51C18.002 14.7415 17.842 14.9364 17.6301 15.058C17.4183 15.1796 17.1692 15.2194 16.93 15.17L15 14.79C14.8046 14.7624 14.6053 14.7932 14.4274 14.8787C14.2494 14.9641 14.1007 15.1002 14 15.27L12 18.73C11.8912 18.9107 11.8422 19.1211 11.8602 19.3312C11.8782 19.5414 11.9621 19.7405 12.1 19.9L13.37 21.34C13.5303 21.5225 13.6188 21.7571 13.6188 22C13.6188 22.2429 13.5303 22.4775 13.37 22.66L12.1 24.1C11.9621 24.2596 11.8782 24.4587 11.8602 24.6688C11.8422 24.8789 11.8912 25.0894 12 25.27L14 28.73C14.1051 28.9125 14.2651 29.0571 14.4573 29.1433C14.6494 29.2295 14.8638 29.2529 15.07 29.21L16.95 28.83C17.1892 28.7806 17.4383 28.8204 17.6501 28.942C17.862 29.0636 18.022 29.2585 18.1 29.49L18.71 31.32C18.7796 31.527 18.915 31.7055 19.0956 31.8283C19.2762 31.9511 19.492 32.0114 19.71 32H23.71C23.9197 32.0006 24.1242 31.9352 24.2946 31.8132C24.4651 31.6912 24.5929 31.5186 24.66 31.32L25.27 29.49C25.348 29.2585 25.508 29.0636 25.7199 28.942C25.9318 28.8204 26.1808 28.7806 26.42 28.83L28.3 29.21C28.5062 29.2529 28.7206 29.2295 28.9128 29.1433C29.1049 29.0571 29.2649 28.9125 29.37 28.73L31.37 25.27C31.4762 25.0873 31.5218 24.8757 31.5002 24.6655C31.4786 24.4553 31.3911 24.2573 31.25 24.1L29.9 22.66ZM28.41 24L29.21 24.9L27.93 27.12L26.75 26.88C26.0298 26.7328 25.2806 26.8551 24.6446 27.2238C24.0086 27.5925 23.5302 28.1819 23.3 28.88L22.92 30H20.36L20 28.86C19.7699 28.1619 19.2914 27.5725 18.6554 27.2038C18.0194 26.8351 17.2702 26.7128 16.55 26.86L15.37 27.1L14.07 24.89L14.87 23.99C15.362 23.44 15.6339 22.7279 15.6339 21.99C15.6339 21.2521 15.362 20.54 14.87 19.99L14.07 19.09L15.35 16.89L16.53 17.13C17.2502 17.2772 17.9994 17.1549 18.6354 16.7862C19.2714 16.4175 19.7499 15.8282 19.98 15.13L20.36 14H22.92L23.3 15.14C23.5302 15.8382 24.0086 16.4275 24.6446 16.7962C25.2806 17.1649 26.0298 17.2872 26.75 17.14L27.93 16.9L29.21 19.12L28.41 20.02C27.9236 20.5688 27.655 21.2767 27.655 22.01C27.655 22.7433 27.9236 23.4513 28.41 24ZM21.64 18C20.8489 18 20.0755 18.2346 19.4177 18.6741C18.7599 19.1137 18.2472 19.7384 17.9445 20.4693C17.6417 21.2002 17.5625 22.0045 17.7169 22.7804C17.8712 23.5563 18.2522 24.269 18.8116 24.8284C19.371 25.3879 20.0837 25.7688 20.8597 25.9232C21.6356 26.0775 22.4398 25.9983 23.1708 25.6955C23.9017 25.3928 24.5264 24.8801 24.9659 24.2223C25.4054 23.5645 25.64 22.7911 25.64 22C25.64 20.9391 25.2186 19.9217 24.4684 19.1716C23.7183 18.4214 22.7009 18 21.64 18ZM21.64 24C21.2445 24 20.8578 23.8827 20.5289 23.663C20.2 23.4432 19.9436 23.1308 19.7923 22.7654C19.6409 22.3999 19.6013 21.9978 19.6784 21.6098C19.7556 21.2219 19.9461 20.8655 20.2258 20.5858C20.5055 20.3061 20.8619 20.1156 21.2498 20.0384C21.6378 19.9613 22.0399 20.0009 22.4054 20.1523C22.7708 20.3036 23.0832 20.56 23.303 20.8889C23.5227 21.2178 23.64 21.6045 23.64 22C23.64 22.5304 23.4293 23.0392 23.0542 23.4142C22.6792 23.7893 22.1705 24 21.64 24Z" fill="white"/>
</svg>
