<svg width="44" height="44" viewBox="0 0 44 44" fill="none" xmlns="http://www.w3.org/2000/svg">
<path d="M29 23.6653V19.9C29 16.5221 26.815 13.6766 23.855 12.8209C23.562 12.046 22.846 11.5 22 11.5C21.154 11.5 20.438 12.046 20.145 12.8209C17.185 13.6777 15 16.5221 15 19.9V23.6653L13.293 25.4576C13.2 25.555 13.1262 25.6707 13.0759 25.7981C13.0256 25.9255 12.9998 26.0621 13 26.2V28.3C13 28.5785 13.1054 28.8455 13.2929 29.0425C13.4804 29.2394 13.7348 29.35 14 29.35H30C30.2652 29.35 30.5196 29.2394 30.7071 29.0425C30.8946 28.8455 31 28.5785 31 28.3V26.2C31.0002 26.0621 30.9744 25.9255 30.9241 25.7981C30.8738 25.6707 30.8 25.555 30.707 25.4576L29 23.6653ZM29 27.25H15V26.6347L16.707 24.8423C16.8 24.745 16.8738 24.6293 16.9241 24.5019C16.9744 24.3745 17.0002 24.2379 17 24.1V19.9C17 17.0051 19.243 14.65 22 14.65C24.757 14.65 27 17.0051 27 19.9V24.1C27 24.3793 27.105 24.646 27.293 24.8423L29 26.6347V27.25ZM22 32.5C22.6193 32.5008 23.2235 32.299 23.7285 31.9227C24.2335 31.5463 24.6143 31.0141 24.818 30.4H19.182C19.3857 31.0141 19.7665 31.5463 20.2715 31.9227C20.7765 32.299 21.3807 32.5008 22 32.5Z" fill="white"/>
<path d="M31 14.65C31 16.0997 29.8487 17.275 28.4286 17.275C27.0084 17.275 25.8571 16.0997 25.8571 14.65C25.8571 13.2003 27.0084 12.025 28.4286 12.025C29.8487 12.025 31 13.2003 31 14.65Z" fill="#FF4E00"/>
</svg>
