<svg width="50" height="45" viewBox="0 0 50 45" fill="none" xmlns="http://www.w3.org/2000/svg">
<path fill-rule="evenodd" clip-rule="evenodd" d="M11.6462 2.66075C11.6794 2.69119 11.7097 2.71895 11.7299 2.74282C11.9698 3.02988 12.0997 3.43804 11.9069 3.79229C11.8245 3.92693 11.7228 4.04687 11.6056 4.14769C11.5123 4.21712 11.4389 4.31299 11.3937 4.42455C11.3813 4.52684 11.3819 4.63045 11.3953 4.73259C11.3994 4.83012 11.3884 4.9277 11.3627 5.02138C11.3047 5.19908 11.1908 5.34969 11.0405 5.44744C10.8841 5.55148 10.7018 5.60235 10.5178 5.59338C10.4274 5.58988 10.3386 5.57211 10.2497 5.55435C10.1675 5.5379 10.0853 5.52146 10.0019 5.51637C9.97423 5.50997 9.94564 5.50959 9.91783 5.51525C9.89002 5.5209 9.86355 5.53248 9.84 5.54929C9.79984 5.58688 9.76537 5.63092 9.73783 5.67982C9.66282 5.82228 9.57283 5.95509 9.46963 6.07566C9.3397 6.2144 9.16934 6.30137 8.98684 6.32214C8.80434 6.34291 8.6207 6.29622 8.46642 6.18983C8.41372 6.14804 8.36831 6.09268 8.3229 6.03733C8.26539 5.96722 8.20789 5.89713 8.13562 5.85464C7.99296 5.80616 7.84102 5.79801 7.69454 5.83096C7.52407 5.85498 7.35094 5.81867 7.20154 5.72756C7.05215 5.63646 6.93469 5.49555 6.86708 5.32634C6.8051 5.15593 6.77662 4.97366 6.78344 4.79093C6.78363 4.77243 6.7844 4.75324 6.78518 4.73376V4.73374C6.7896 4.62365 6.79439 4.50434 6.69673 4.44938C6.52959 4.37783 6.3769 4.27245 6.24703 4.13903C6.11283 4.00467 6.02729 3.82389 6.0055 3.6286C5.98371 3.43331 6.02708 3.23606 6.12795 3.07166C6.14469 3.04557 6.16292 3.0201 6.18114 2.99464L6.18115 2.99463C6.24709 2.90251 6.3129 2.81055 6.30783 2.68988C6.28918 2.53953 6.26136 2.39064 6.22454 2.24418C6.18416 2.06934 6.19634 1.88532 6.25935 1.71832C6.32236 1.55133 6.43299 1.40986 6.57549 1.31408C6.70467 1.2413 6.84465 1.19303 6.98922 1.17142C7.00656 1.16794 7.02586 1.16497 7.04614 1.16186C7.14387 1.14682 7.26448 1.12827 7.29934 1.0326C7.31461 0.990409 7.32236 0.945311 7.33013 0.900087C7.33746 0.857404 7.34481 0.81461 7.35852 0.774039C7.38522 0.691278 7.42219 0.61273 7.46843 0.540504C7.56362 0.39063 7.70137 0.277553 7.8613 0.218021C8.0231 0.169192 8.19337 0.16187 8.35831 0.19665C8.44782 0.21156 8.53446 0.241994 8.61482 0.286753C8.63674 0.299034 8.65995 0.317644 8.68388 0.336833C8.72674 0.371192 8.77191 0.407408 8.81611 0.412473C8.87085 0.406725 8.92269 0.383442 8.96488 0.345666C9.00114 0.321468 9.03609 0.295177 9.07102 0.268897L9.07103 0.268891C9.10557 0.242902 9.1401 0.216924 9.17588 0.192992C9.33489 0.0803372 9.51859 0.0139809 9.70887 0.000464926C10.0719 -0.0132045 10.2796 0.276741 10.4415 0.580934C10.4852 0.687063 10.5498 0.781832 10.6309 0.858751C10.7083 0.912011 10.8065 0.925323 10.9046 0.938631C10.9803 0.948895 11.0559 0.959157 11.122 0.987744C11.279 1.06768 11.4079 1.19946 11.4896 1.36369C11.5714 1.52791 11.6017 1.71589 11.5761 1.89994C11.5696 2.00572 11.5506 2.11019 11.5196 2.21087C11.4893 2.26765 11.4674 2.32908 11.4546 2.393C11.4561 2.48631 11.5608 2.58241 11.6462 2.66075ZM15.6568 13.5524C18.5307 8.90747 21.1971 4.74551 23.9805 0.521021C24.0118 0.4737 24.0553 0.434699 24.1069 0.407667C24.1584 0.380635 24.2164 0.366455 24.2752 0.366455C24.3341 0.366455 24.3921 0.380635 24.4436 0.407667C24.4952 0.434699 24.5387 0.4737 24.57 0.521021C27.3535 4.74551 30.0198 8.90747 32.8932 13.5524C32.9241 13.6025 32.9406 13.6595 32.9409 13.7176C32.9412 13.7757 32.9253 13.8329 32.8949 13.8833C32.8644 13.9337 32.8205 13.9756 32.7675 14.0048C32.7146 14.0339 32.6544 14.0493 32.5932 14.0493C32.14 14.0482 31.7455 14.0445 31.3717 14.0409H31.3716H31.3714H31.3713H31.3712L31.371 14.0409C31.0837 14.0382 30.8087 14.0356 30.5285 14.0344C30.4978 14.0342 30.4676 14.0418 30.441 14.0563C30.4143 14.0709 30.3923 14.0919 30.377 14.1172C30.3617 14.1425 30.3538 14.1712 30.3541 14.2004C30.3544 14.2295 30.3628 14.2581 30.3786 14.2832C30.7014 14.7902 31.0454 15.3298 31.4039 15.8922C33.1036 18.5583 35.1305 21.7378 36.786 24.4012C36.8171 24.4513 36.8336 24.5083 36.8339 24.5665C36.8342 24.6246 36.8182 24.6818 36.7876 24.7322C36.7571 24.7826 36.713 24.8244 36.6598 24.8534C36.6067 24.8824 36.5464 24.8974 36.4852 24.8971C36.1485 24.8955 35.8089 24.8929 35.4696 24.8903L35.4684 24.8903H35.4683H35.4683H35.4683C35.0358 24.887 34.6038 24.8837 34.1792 24.8825C34.1485 24.8825 34.1185 24.8903 34.092 24.905C34.0656 24.9197 34.0437 24.9407 34.0287 24.966C34.0136 24.9913 34.0058 25.0199 34.0062 25.049C34.0066 25.078 34.015 25.1065 34.0307 25.1314C34.3758 25.6736 34.745 26.2528 35.1304 26.8573L35.1505 26.8888L35.1546 26.8953C36.8341 29.5299 38.8156 32.6381 40.4394 35.2513C40.4703 35.3012 40.4868 35.358 40.4872 35.4159C40.4875 35.4738 40.4718 35.5307 40.4416 35.581C40.4114 35.6313 40.3677 35.6732 40.315 35.7023C40.2622 35.7315 40.2024 35.7469 40.1413 35.7471H28.3012C28.2988 36.8152 28.2907 38.564 28.2828 40.2802L28.2827 40.2814L28.2827 40.2851V40.2855L28.2827 40.2865C28.2737 42.2425 28.2648 44.1551 28.2648 44.9678C26.1356 44.9716 22.481 44.9765 20.2485 44.9765V35.7471H8.40864C8.34764 35.7469 8.28777 35.7314 8.23508 35.7023C8.18239 35.6731 8.13873 35.6313 8.10852 35.581C8.0783 35.5307 8.0626 35.4737 8.063 35.4158C8.06339 35.3579 8.07987 35.3012 8.11076 35.2513C9.72684 32.6501 11.6977 29.5584 13.3722 26.9316L13.3743 26.9284C13.776 26.2982 14.1607 25.6949 14.5192 25.1314C14.5349 25.1065 14.5434 25.078 14.5438 25.049C14.5441 25.0199 14.5364 24.9913 14.5213 24.966C14.5062 24.9407 14.4844 24.9197 14.4579 24.905C14.4315 24.8903 14.4014 24.8825 14.3708 24.8825C13.9466 24.8837 13.5148 24.887 13.0824 24.8903L13.0815 24.8903C12.7419 24.8929 12.4019 24.8955 12.0648 24.8971C12.0035 24.8974 11.9433 24.8824 11.8901 24.8534C11.837 24.8244 11.7929 24.7826 11.7623 24.7322C11.7318 24.6818 11.7158 24.6246 11.7161 24.5665C11.7164 24.5083 11.7329 24.4513 11.764 24.4012C13.4064 21.7582 15.4145 18.6084 17.106 15.9553L17.106 15.9552C17.4791 15.3701 17.8367 14.8092 18.1716 14.2832C18.1873 14.2581 18.1958 14.2295 18.196 14.2003C18.1963 14.1712 18.1884 14.1424 18.1731 14.1171C18.1578 14.0918 18.1357 14.0708 18.1091 14.0563C18.0824 14.0417 18.0522 14.0342 18.0214 14.0344C17.7413 14.0356 17.4663 14.0382 17.1791 14.0409C16.8051 14.0445 16.4104 14.0482 15.9569 14.0493C15.8957 14.0493 15.8355 14.034 15.7825 14.0049C15.7296 13.9757 15.6856 13.9338 15.6552 13.8834C15.6247 13.833 15.6088 13.7758 15.6091 13.7177C15.6094 13.6596 15.6259 13.6025 15.6568 13.5524ZM49.7305 17.506C49.7104 17.4821 49.68 17.4543 49.6468 17.4238L49.6468 17.4238L49.6468 17.4238L49.6467 17.4238C49.5613 17.3455 49.4565 17.2494 49.4551 17.1562C49.4679 17.0922 49.4898 17.0307 49.52 16.9738C49.5512 16.8733 49.5703 16.7688 49.5767 16.6631C49.6023 16.479 49.572 16.2911 49.4903 16.1268C49.4085 15.9626 49.2797 15.8308 49.1226 15.7509C49.0564 15.7222 48.9807 15.7119 48.905 15.7017C48.8068 15.6884 48.7087 15.6751 48.6313 15.6217C48.5503 15.5448 48.4857 15.4501 48.4419 15.3441C48.28 15.0399 48.0724 14.7499 47.7092 14.7634C47.5189 14.777 47.3353 14.8433 47.1763 14.9559C47.14 14.9802 47.105 15.0065 47.07 15.0328L47.0699 15.0328C47.0355 15.0587 47.001 15.0846 46.9653 15.1086C46.923 15.1464 46.8711 15.1697 46.8163 15.1754C46.7724 15.1704 46.7274 15.1343 46.6847 15.1C46.6606 15.0807 46.6372 15.062 46.6152 15.0497C46.5348 15.005 46.4482 14.9746 46.3587 14.9596C46.1936 14.9248 46.0233 14.9321 45.8614 14.9808C45.7015 15.0405 45.5638 15.1536 45.4685 15.3034C45.4223 15.3756 45.3853 15.4542 45.3588 15.537C45.3451 15.5775 45.3377 15.6203 45.3303 15.6629L45.3303 15.663C45.3225 15.7082 45.3147 15.7533 45.2994 15.7956C45.2646 15.8914 45.1436 15.9098 45.0458 15.9248C45.0256 15.9278 45.0065 15.9308 44.9893 15.9342C44.8447 15.956 44.7047 16.0043 44.5755 16.077C44.433 16.1728 44.3224 16.3143 44.2594 16.4812C44.1964 16.6482 44.1842 16.8321 44.2245 17.0069C44.2615 17.1535 44.2893 17.3024 44.308 17.4528C44.3129 17.5736 44.2471 17.6655 44.1812 17.7577C44.163 17.7831 44.1448 17.8086 44.1281 17.8346C44.0271 17.999 43.9837 18.1962 44.0055 18.3915C44.0272 18.5868 44.1128 18.7676 44.247 18.902C44.3769 19.0353 44.5296 19.1406 44.6967 19.2122C44.7943 19.2673 44.7896 19.3868 44.7852 19.4969C44.7844 19.5162 44.7836 19.5353 44.7835 19.5537C44.7766 19.7364 44.805 19.9187 44.8669 20.0891C44.9346 20.2584 45.052 20.3993 45.2014 20.4904C45.3508 20.5815 45.524 20.6179 45.6945 20.594C45.841 20.561 45.993 20.5692 46.1358 20.6176C46.2081 20.6602 46.2657 20.7303 46.3232 20.8004C46.3686 20.8557 46.414 20.911 46.4666 20.9528C46.6209 21.0592 46.8046 21.1059 46.9871 21.0851C47.1696 21.0643 47.3399 20.9774 47.4699 20.8387C47.5731 20.718 47.6631 20.5851 47.7381 20.4426C47.7657 20.3938 47.8001 20.3498 47.8401 20.3121C47.8637 20.2953 47.8902 20.2837 47.918 20.2781C47.9458 20.2725 47.9744 20.2729 48.002 20.2794C48.0856 20.2845 48.1679 20.3009 48.2503 20.3174C48.339 20.3351 48.4277 20.3528 48.518 20.3564C48.7021 20.3654 48.8843 20.3144 49.0408 20.2102C49.1905 20.1123 49.3038 19.9618 49.3614 19.7844C49.3871 19.6907 49.3981 19.5931 49.3941 19.4956C49.3805 19.3934 49.38 19.2898 49.3925 19.1875C49.4377 19.076 49.5111 18.9801 49.6044 18.9107C49.7216 18.8098 49.8232 18.6899 49.9056 18.5553C50.1002 18.201 49.9703 17.793 49.7305 17.506ZM41.8245 2.88268C41.8111 2.86672 41.7908 2.84813 41.7685 2.82772C41.7115 2.77558 41.6417 2.71159 41.6407 2.64941C41.6492 2.60686 41.6638 2.56596 41.6839 2.52815C41.705 2.46106 41.7179 2.39137 41.7224 2.32077C41.7395 2.19808 41.7193 2.07276 41.6647 1.96327C41.6102 1.85379 41.5242 1.76592 41.4194 1.71263C41.3752 1.69356 41.3247 1.68674 41.2742 1.67991C41.2087 1.67107 41.1432 1.66222 41.0915 1.62672C41.0375 1.57546 40.9943 1.51238 40.965 1.44175C40.8573 1.2389 40.7183 1.04571 40.4761 1.05475C40.3491 1.06365 40.2265 1.10786 40.1204 1.183C40.0966 1.19891 40.0737 1.21608 40.0508 1.23324L40.0507 1.23332C40.0272 1.25092 40.0037 1.26851 39.9794 1.28473C39.9513 1.31001 39.9166 1.32563 39.88 1.32953C39.8511 1.32615 39.8213 1.30236 39.793 1.27966L39.7929 1.27964C39.7765 1.26648 39.7605 1.2537 39.7454 1.24548C39.6917 1.21572 39.6339 1.19545 39.5741 1.18546C39.464 1.16236 39.3503 1.16722 39.2422 1.19964C39.1355 1.23943 39.0435 1.31488 38.98 1.41483C38.9491 1.46294 38.9245 1.51527 38.9067 1.57041C38.8974 1.59738 38.8926 1.62584 38.8878 1.65423C38.8827 1.68448 38.8776 1.71464 38.8671 1.74284C38.8441 1.80651 38.7638 1.81885 38.6987 1.82886C38.685 1.83097 38.6719 1.83297 38.6602 1.83533C38.5638 1.8498 38.4705 1.88199 38.3843 1.93049C38.2892 1.99438 38.2154 2.0887 38.1734 2.20002C38.1313 2.31134 38.1232 2.434 38.1501 2.55055C38.1748 2.64811 38.1934 2.74733 38.2057 2.84753C38.2091 2.92808 38.1651 2.98944 38.121 3.0509L38.121 3.05097C38.1088 3.0679 38.0967 3.08483 38.0855 3.10217C38.0181 3.21174 37.9891 3.34324 38.0037 3.47344C38.0182 3.60363 38.0753 3.72415 38.1649 3.8137C38.2517 3.90272 38.3537 3.97299 38.4654 4.02066C38.5297 4.05673 38.5269 4.13428 38.5242 4.20665C38.5236 4.22088 38.5231 4.23491 38.5231 4.24838C38.5185 4.37015 38.5375 4.49162 38.5789 4.60517C38.624 4.71811 38.7024 4.81215 38.8023 4.87291C38.9021 4.93367 39.0178 4.9578 39.1317 4.94161C39.2295 4.91975 39.331 4.92521 39.4262 4.95744C39.4745 4.9858 39.5128 5.03252 39.5512 5.07927L39.5512 5.07931C39.5815 5.11621 39.6118 5.15312 39.647 5.18105C39.75 5.25196 39.8726 5.28307 39.9944 5.2692C40.1162 5.25532 40.23 5.19731 40.3167 5.1048C40.3855 5.02439 40.4456 4.93585 40.4957 4.8409C40.5141 4.8084 40.5371 4.77909 40.5637 4.75397C40.5795 4.74272 40.5972 4.73497 40.6158 4.7312C40.6344 4.72742 40.6535 4.72768 40.672 4.73198C40.7278 4.73545 40.7829 4.74652 40.8382 4.75761C40.8972 4.76946 40.9563 4.78132 41.0164 4.78397C41.1392 4.78979 41.2608 4.75583 41.3653 4.68656C41.4654 4.62127 41.5411 4.52087 41.5795 4.40252C41.5967 4.34012 41.604 4.27512 41.6013 4.21015C41.5922 4.14201 41.5918 4.07288 41.6001 4.00463C41.6303 3.93011 41.6793 3.86605 41.7416 3.81966C41.8199 3.75246 41.8878 3.67249 41.9427 3.58269C41.9954 3.46777 42.0123 3.33787 41.9911 3.21195C41.9698 3.08602 41.9114 2.97065 41.8245 2.88268ZM2.8268 22.4196C2.84362 22.435 2.85895 22.4491 2.86903 22.4611C2.93408 22.5272 2.97768 22.6137 2.99345 22.7082C3.00922 22.8026 2.99634 22.8999 2.9567 22.986C2.91548 23.0533 2.86463 23.1133 2.80601 23.1637C2.75925 23.1985 2.7225 23.2466 2.69989 23.3025C2.69366 23.3536 2.69395 23.4055 2.70075 23.4566C2.70282 23.5053 2.69726 23.5541 2.68431 23.6009C2.65553 23.6896 2.5988 23.7649 2.52382 23.8139C2.44548 23.8659 2.35425 23.8914 2.26211 23.887C2.21706 23.885 2.17273 23.8761 2.12848 23.8672C2.08706 23.8589 2.04569 23.8506 2.00386 23.848C1.98999 23.8448 1.97565 23.8446 1.9617 23.8474C1.94775 23.8502 1.93448 23.856 1.92268 23.8645C1.90259 23.8832 1.88537 23.9052 1.87163 23.9297C1.83407 24.0009 1.78903 24.0673 1.73739 24.1276C1.67236 24.197 1.58707 24.2405 1.49571 24.2509C1.40435 24.2613 1.3124 24.238 1.23516 24.1848C1.20877 24.1639 1.18602 24.1362 1.16328 24.1085C1.13447 24.0734 1.10567 24.0384 1.06948 24.0171C0.998071 23.9929 0.92202 23.9889 0.848719 24.0054C0.763311 24.0174 0.67656 23.9993 0.60169 23.9537C0.52682 23.9082 0.467937 23.8377 0.434017 23.753C0.40304 23.6678 0.388806 23.5766 0.3922 23.4853C0.392328 23.4762 0.392734 23.4667 0.393145 23.4572C0.395516 23.402 0.398092 23.3421 0.348942 23.3145C0.265214 23.2787 0.1887 23.2261 0.123566 23.1594C0.0564289 23.0922 0.0136437 23.0018 0.00274942 22.9041C-0.00814483 22.8064 0.013551 22.7078 0.0640142 22.6256C0.0723877 22.6126 0.0814814 22.6 0.0905669 22.5873C0.123724 22.5412 0.15677 22.4952 0.15428 22.4347C0.14491 22.3596 0.13099 22.2851 0.112608 22.2118C0.0924085 22.1244 0.0985084 22.0324 0.13004 21.9489C0.161571 21.8654 0.216928 21.7947 0.288236 21.7468C0.352861 21.7104 0.422858 21.6863 0.495155 21.6754C0.503775 21.6737 0.513366 21.6722 0.52345 21.6707C0.572407 21.6632 0.632971 21.654 0.650308 21.606C0.658192 21.5849 0.66201 21.5623 0.665837 21.5396C0.669429 21.5183 0.673031 21.4969 0.680012 21.4767C0.693404 21.4354 0.711879 21.3961 0.73495 21.36C0.783032 21.2852 0.852338 21.2289 0.93264 21.1994C1.01368 21.1751 1.09892 21.1714 1.18152 21.1887C1.22634 21.1963 1.26972 21.2116 1.31 21.2339C1.32137 21.24 1.3334 21.2497 1.34577 21.2596C1.36696 21.2765 1.38918 21.2943 1.41093 21.2968C1.43836 21.2939 1.46435 21.2823 1.48548 21.2634C1.5025 21.2516 1.51894 21.2392 1.53534 21.2268C1.55369 21.2129 1.572 21.1991 1.59103 21.1863C1.67069 21.13 1.76267 21.0969 1.85793 21.0901C2.03962 21.0833 2.14387 21.2282 2.22462 21.3804C2.24659 21.4333 2.27895 21.4806 2.3195 21.5191C2.35824 21.5457 2.40736 21.5523 2.45647 21.559C2.49437 21.5641 2.53225 21.5692 2.56535 21.5835C2.64395 21.6235 2.70846 21.6895 2.74937 21.7716C2.79029 21.8537 2.80544 21.9478 2.7926 22.0398C2.78918 22.0927 2.77949 22.1449 2.76376 22.1952C2.74859 22.2236 2.7376 22.2543 2.73118 22.2863C2.7319 22.3327 2.78416 22.3806 2.8268 22.4196Z" fill="white"/>
</svg>
