<svg width="183" height="146" viewBox="0 0 183 146" fill="none" xmlns="http://www.w3.org/2000/svg">
<g filter="url(#filter0_bd_0_4549)">
<mask id="path-1-inside-1_0_4549" fill="white">
<path fill-rule="evenodd" clip-rule="evenodd" d="M104.915 62.3068C104.944 62.3071 104.973 62.3073 105.002 62.3073C109.143 62.3073 112.5 59.042 112.5 55.014C112.5 50.9861 109.143 47.7208 105.002 47.7208C104.973 47.7208 104.944 47.7209 104.915 47.7213V47.7208H102.978C103.048 47.2217 103.084 46.7121 103.084 46.1943C103.084 40.0119 97.9316 35 91.5756 35C85.2197 35 80.0672 40.0119 80.0672 46.1943C80.0672 46.7777 80.1131 47.3506 80.2015 47.9099C79.6542 47.7862 79.0839 47.7208 78.4979 47.7208C74.3569 47.7208 71 50.9861 71 55.014C71 59.042 74.3569 62.3073 78.4979 62.3073C78.5271 62.3073 78.5563 62.3071 78.5855 62.3068L78.5851 62.3073H104.915V62.3068Z"/>
</mask>
<path fill-rule="evenodd" clip-rule="evenodd" d="M104.915 62.3068C104.944 62.3071 104.973 62.3073 105.002 62.3073C109.143 62.3073 112.5 59.042 112.5 55.014C112.5 50.9861 109.143 47.7208 105.002 47.7208C104.973 47.7208 104.944 47.7209 104.915 47.7213V47.7208H102.978C103.048 47.2217 103.084 46.7121 103.084 46.1943C103.084 40.0119 97.9316 35 91.5756 35C85.2197 35 80.0672 40.0119 80.0672 46.1943C80.0672 46.7777 80.1131 47.3506 80.2015 47.9099C79.6542 47.7862 79.0839 47.7208 78.4979 47.7208C74.3569 47.7208 71 50.9861 71 55.014C71 59.042 74.3569 62.3073 78.4979 62.3073C78.5271 62.3073 78.5563 62.3071 78.5855 62.3068L78.5851 62.3073H104.915V62.3068Z" fill="url(#paint0_linear_0_4549)" shape-rendering="crispEdges"/>
<path d="M104.915 62.3068L104.937 60.3069C104.403 60.301 103.888 60.5091 103.509 60.8848C103.129 61.2605 102.915 61.7725 102.915 62.3068H104.915ZM104.915 47.7213H102.915C102.915 48.2555 103.129 48.7676 103.509 49.1433C103.888 49.519 104.403 49.7271 104.937 49.7211L104.915 47.7213ZM104.915 47.7208H106.915C106.915 46.6162 106.019 45.7208 104.915 45.7208V47.7208ZM102.978 47.7208L100.997 47.4431C100.917 48.0164 101.089 48.5964 101.469 49.0332C101.849 49.47 102.399 49.7208 102.978 49.7208V47.7208ZM80.2015 47.9099L79.7607 49.8607C80.4075 50.0068 81.0847 49.8229 81.5687 49.3696C82.0527 48.9163 82.2806 48.2525 82.177 47.5975L80.2015 47.9099ZM78.5855 62.3068L80.1382 63.5673C80.6269 62.9653 80.7236 62.135 80.3863 61.4368C80.049 60.7386 79.3386 60.2983 78.5632 60.3069L78.5855 62.3068ZM78.5851 62.3073L77.0323 61.0468C76.5461 61.6457 76.4477 62.4708 76.7794 63.1672C77.1111 63.8637 77.8137 64.3073 78.5851 64.3073V62.3073ZM104.915 62.3073V64.3073C106.019 64.3073 106.915 63.4119 106.915 62.3073H104.915ZM104.893 64.3067C104.929 64.3071 104.966 64.3073 105.002 64.3073V60.3073C104.98 60.3073 104.959 60.3072 104.937 60.3069L104.893 64.3067ZM105.002 64.3073C110.195 64.3073 114.5 60.1984 114.5 55.014H110.5C110.5 57.8856 108.091 60.3073 105.002 60.3073V64.3073ZM114.5 55.014C114.5 49.8297 110.195 45.7208 105.002 45.7208V49.7208C108.091 49.7208 110.5 52.1425 110.5 55.014H114.5ZM105.002 45.7208C104.966 45.7208 104.929 45.721 104.893 45.7214L104.937 49.7211C104.959 49.7209 104.98 49.7208 105.002 49.7208V45.7208ZM102.915 47.7208V47.7213H106.915V47.7208H102.915ZM102.978 49.7208H104.915V45.7208H102.978V49.7208ZM104.959 47.9984C105.041 47.4076 105.084 46.8053 105.084 46.1943H101.084C101.084 46.6189 101.054 47.0357 100.997 47.4431L104.959 47.9984ZM105.084 46.1943C105.084 38.8555 98.9836 33 91.5756 33V37C96.8795 37 101.084 41.1682 101.084 46.1943H105.084ZM91.5756 33C84.1677 33 78.0672 38.8555 78.0672 46.1943H82.0672C82.0672 41.1682 86.2718 37 91.5756 37V33ZM78.0672 46.1943C78.0672 46.8827 78.1214 47.56 78.2261 48.2222L82.177 47.5975C82.1048 47.1411 82.0672 46.6726 82.0672 46.1943H78.0672ZM80.6424 45.9591C79.9512 45.8029 79.2331 45.7208 78.4979 45.7208V49.7208C78.9347 49.7208 79.3572 49.7695 79.7607 49.8607L80.6424 45.9591ZM78.4979 45.7208C73.3049 45.7208 69 49.8297 69 55.014H73C73 52.1425 75.409 49.7208 78.4979 49.7208V45.7208ZM69 55.014C69 60.1984 73.3049 64.3073 78.4979 64.3073V60.3073C75.409 60.3073 73 57.8856 73 55.014H69ZM78.4979 64.3073C78.5345 64.3073 78.5711 64.3071 78.6077 64.3067L78.5632 60.3069C78.5415 60.3072 78.5197 60.3073 78.4979 60.3073V64.3073ZM80.1378 63.5678L80.1382 63.5673L77.0327 61.0463L77.0323 61.0468L80.1378 63.5678ZM104.915 60.3073H78.5851V64.3073H104.915V60.3073ZM102.915 62.3068V62.3073H106.915V62.3068H102.915Z" fill="url(#paint1_linear_0_4549)" mask="url(#path-1-inside-1_0_4549)"/>
</g>
<g filter="url(#filter1_bd_0_4549)">
<mask id="path-3-inside-2_0_4549" fill="white">
<path fill-rule="evenodd" clip-rule="evenodd" d="M127.58 80.9993C127.62 80.9998 127.66 81 127.701 81C133.431 81 138.076 76.4817 138.076 70.9082C138.076 65.3346 133.431 60.8163 127.701 60.8163C127.66 60.8163 127.62 60.8166 127.58 60.817V60.8163H124.9C124.997 60.1257 125.047 59.4206 125.047 58.7041C125.047 50.1493 117.917 43.2143 109.122 43.2143C100.327 43.2143 93.1977 50.1493 93.1977 58.7041C93.1977 59.5113 93.2611 60.3041 93.3835 61.078C92.6262 60.9068 91.837 60.8163 91.0261 60.8163C85.2962 60.8163 80.6511 65.3346 80.6511 70.9082C80.6511 76.4817 85.2962 81 91.0261 81C91.0666 81 91.107 80.9998 91.1473 80.9993L91.1468 81H127.58V80.9993Z"/>
</mask>
<path fill-rule="evenodd" clip-rule="evenodd" d="M127.58 80.9993C127.62 80.9998 127.66 81 127.701 81C133.431 81 138.076 76.4817 138.076 70.9082C138.076 65.3346 133.431 60.8163 127.701 60.8163C127.66 60.8163 127.62 60.8166 127.58 60.817V60.8163H124.9C124.997 60.1257 125.047 59.4206 125.047 58.7041C125.047 50.1493 117.917 43.2143 109.122 43.2143C100.327 43.2143 93.1977 50.1493 93.1977 58.7041C93.1977 59.5113 93.2611 60.3041 93.3835 61.078C92.6262 60.9068 91.837 60.8163 91.0261 60.8163C85.2962 60.8163 80.6511 65.3346 80.6511 70.9082C80.6511 76.4817 85.2962 81 91.0261 81C91.0666 81 91.107 80.9998 91.1473 80.9993L91.1468 81H127.58V80.9993Z" fill="url(#paint2_linear_0_4549)" shape-rendering="crispEdges"/>
<path d="M127.58 80.9993L127.602 78.9995C127.068 78.9935 126.553 79.2016 126.174 79.5773C125.794 79.953 125.58 80.4651 125.58 80.9993H127.58ZM127.58 60.817H125.58C125.58 61.3513 125.794 61.8634 126.174 62.2391C126.553 62.6147 127.068 62.8228 127.602 62.8169L127.58 60.817ZM127.58 60.8163H129.58C129.58 59.7118 128.684 58.8163 127.58 58.8163V60.8163ZM124.9 60.8163L122.919 60.5387C122.839 61.1119 123.011 61.6919 123.39 62.1287C123.77 62.5655 124.321 62.8163 124.9 62.8163V60.8163ZM93.3835 61.078L92.9426 63.0288C93.5895 63.175 94.2667 62.991 94.7507 62.5377C95.2347 62.0844 95.4625 61.4206 95.359 60.7656L93.3835 61.078ZM91.1473 80.9993L92.702 82.2575C93.1894 81.6552 93.2851 80.8255 92.9475 80.128C92.6099 79.4305 91.8998 78.9908 91.125 78.9995L91.1473 80.9993ZM91.1468 81L89.5921 79.7418C89.1072 80.341 89.0098 81.1656 89.3417 81.8613C89.6737 82.557 90.3759 83 91.1468 83V81ZM127.58 81V83C128.684 83 129.58 82.1046 129.58 81H127.58ZM127.558 82.9992C127.605 82.9997 127.653 83 127.701 83V79C127.668 79 127.635 78.9998 127.602 78.9995L127.558 82.9992ZM127.701 83C134.483 83 140.076 77.6381 140.076 70.9082H136.076C136.076 75.3254 132.379 79 127.701 79V83ZM140.076 70.9082C140.076 64.1782 134.483 58.8163 127.701 58.8163V62.8163C132.379 62.8163 136.076 66.491 136.076 70.9082H140.076ZM127.701 58.8163C127.653 58.8163 127.605 58.8166 127.558 58.8171L127.602 62.8169C127.635 62.8165 127.668 62.8163 127.701 62.8163V58.8163ZM125.58 60.8163V60.817H129.58V60.8163H125.58ZM124.9 62.8163H127.58V58.8163H124.9V62.8163ZM126.88 61.094C126.99 60.3117 127.047 59.5137 127.047 58.7041H123.047C123.047 59.3274 123.003 59.9397 122.919 60.5387L126.88 61.094ZM127.047 58.7041C127.047 48.9929 118.969 41.2143 109.122 41.2143V45.2143C116.865 45.2143 123.047 51.3057 123.047 58.7041H127.047ZM109.122 41.2143C99.2752 41.2143 91.1977 48.9929 91.1977 58.7041H95.1977C95.1977 51.3057 101.379 45.2143 109.122 45.2143V41.2143ZM91.1977 58.7041C91.1977 59.6163 91.2694 60.5135 91.4081 61.3903L95.359 60.7656C95.2529 60.0946 95.1977 59.4062 95.1977 58.7041H91.1977ZM93.8244 59.1272C92.9232 58.9235 91.9862 58.8163 91.0261 58.8163V62.8163C91.6878 62.8163 92.3291 62.8901 92.9426 63.0288L93.8244 59.1272ZM91.0261 58.8163C84.2441 58.8163 78.6511 64.1782 78.6511 70.9082H82.6511C82.6511 66.491 86.3482 62.8163 91.0261 62.8163V58.8163ZM78.6511 70.9082C78.6511 77.6381 84.2441 83 91.0261 83V79C86.3482 79 82.6511 75.3254 82.6511 70.9082H78.6511ZM91.0261 83C91.074 83 91.1218 82.9997 91.1696 82.9992L91.125 78.9995C91.0921 78.9998 91.0592 79 91.0261 79V83ZM92.7014 82.2582L92.702 82.2575L89.5927 79.7411L89.5921 79.7418L92.7014 82.2582ZM127.58 79H91.1468V83H127.58V79ZM125.58 80.9993V81H129.58V80.9993H125.58Z" fill="url(#paint3_linear_0_4549)" mask="url(#path-3-inside-2_0_4549)"/>
</g>
<g filter="url(#filter2_bd_0_4549)">
<mask id="path-5-inside-3_0_4549" fill="white">
<path fill-rule="evenodd" clip-rule="evenodd" d="M146.415 70.5211C146.444 70.5215 146.473 70.5216 146.502 70.5216C150.643 70.5216 154 67.2563 154 63.2284C154 59.2004 150.643 55.9351 146.502 55.9351C146.473 55.9351 146.444 55.9353 146.415 55.9356V55.9351H144.478C144.548 55.436 144.584 54.9264 144.584 54.4086C144.584 48.2261 139.432 43.2143 133.076 43.2143C126.72 43.2143 121.567 48.2261 121.567 54.4086C121.567 54.9919 121.613 55.5649 121.702 56.1242C121.154 56.0005 120.584 55.9351 119.998 55.9351C115.857 55.9351 112.5 59.2004 112.5 63.2284C112.5 67.2563 115.857 70.5216 119.998 70.5216C120.027 70.5216 120.056 70.5215 120.086 70.5211L120.085 70.5216H146.415V70.5211Z"/>
</mask>
<path fill-rule="evenodd" clip-rule="evenodd" d="M146.415 70.5211C146.444 70.5215 146.473 70.5216 146.502 70.5216C150.643 70.5216 154 67.2563 154 63.2284C154 59.2004 150.643 55.9351 146.502 55.9351C146.473 55.9351 146.444 55.9353 146.415 55.9356V55.9351H144.478C144.548 55.436 144.584 54.9264 144.584 54.4086C144.584 48.2261 139.432 43.2143 133.076 43.2143C126.72 43.2143 121.567 48.2261 121.567 54.4086C121.567 54.9919 121.613 55.5649 121.702 56.1242C121.154 56.0005 120.584 55.9351 119.998 55.9351C115.857 55.9351 112.5 59.2004 112.5 63.2284C112.5 67.2563 115.857 70.5216 119.998 70.5216C120.027 70.5216 120.056 70.5215 120.086 70.5211L120.085 70.5216H146.415V70.5211Z" fill="url(#paint4_linear_0_4549)" shape-rendering="crispEdges"/>
<path d="M146.415 70.5211L146.437 68.5213C145.903 68.5154 145.388 68.7234 145.009 69.0991C144.629 69.4748 144.415 69.9869 144.415 70.5211H146.415ZM146.415 55.9356H144.415C144.415 56.4699 144.629 56.9819 145.009 57.3576C145.388 57.7333 145.903 57.9414 146.437 57.9355L146.415 55.9356ZM146.415 55.9351H148.415C148.415 54.8305 147.52 53.9351 146.415 53.9351V55.9351ZM144.478 55.9351L142.497 55.6575C142.417 56.2307 142.589 56.8107 142.969 57.2475C143.349 57.6843 143.899 57.9351 144.478 57.9351V55.9351ZM121.702 56.1242L121.261 58.075C121.907 58.2212 122.585 58.0372 123.069 57.5839C123.553 57.1306 123.781 56.4668 123.677 55.8118L121.702 56.1242ZM120.086 70.5211L121.64 71.7796C122.128 71.1773 122.223 70.3475 121.886 69.65C121.548 68.9524 120.838 68.5126 120.063 68.5213L120.086 70.5211ZM120.085 70.5216L118.531 69.2632C118.046 69.8623 117.948 70.687 118.28 71.3828C118.612 72.0785 119.314 72.5216 120.085 72.5216V70.5216ZM146.415 70.5216V72.5216C147.52 72.5216 148.415 71.6262 148.415 70.5216H146.415ZM146.393 72.521C146.429 72.5214 146.466 72.5216 146.502 72.5216V68.5216C146.48 68.5216 146.459 68.5215 146.437 68.5213L146.393 72.521ZM146.502 72.5216C151.695 72.5216 156 68.4127 156 63.2284H152C152 66.0999 149.591 68.5216 146.502 68.5216V72.5216ZM156 63.2284C156 58.044 151.695 53.9351 146.502 53.9351V57.9351C149.591 57.9351 152 60.3568 152 63.2284H156ZM146.502 53.9351C146.466 53.9351 146.429 53.9353 146.393 53.9357L146.437 57.9355C146.459 57.9352 146.48 57.9351 146.502 57.9351V53.9351ZM144.415 55.9351V55.9356H148.415V55.9351H144.415ZM144.478 57.9351H146.415V53.9351H144.478V57.9351ZM146.459 56.2128C146.541 55.6219 146.584 55.0196 146.584 54.4086H142.584C142.584 54.8332 142.554 55.25 142.497 55.6575L146.459 56.2128ZM146.584 54.4086C146.584 47.0697 140.484 41.2143 133.076 41.2143V45.2143C138.38 45.2143 142.584 49.3825 142.584 54.4086H146.584ZM133.076 41.2143C125.668 41.2143 119.567 47.0697 119.567 54.4086H123.567C123.567 49.3825 127.772 45.2143 133.076 45.2143V41.2143ZM119.567 54.4086C119.567 55.097 119.621 55.7744 119.726 56.4365L123.677 55.8118C123.605 55.3554 123.567 54.8869 123.567 54.4086H119.567ZM122.142 54.1734C121.451 54.0172 120.733 53.9351 119.998 53.9351V57.9351C120.435 57.9351 120.857 57.9838 121.261 58.075L122.142 54.1734ZM119.998 53.9351C114.805 53.9351 110.5 58.044 110.5 63.2284H114.5C114.5 60.3568 116.909 57.9351 119.998 57.9351V53.9351ZM110.5 63.2284C110.5 68.4127 114.805 72.5216 119.998 72.5216V68.5216C116.909 68.5216 114.5 66.0999 114.5 63.2284H110.5ZM119.998 72.5216C120.035 72.5216 120.071 72.5214 120.108 72.521L120.063 68.5213C120.041 68.5215 120.02 68.5216 119.998 68.5216V72.5216ZM121.64 71.7801L121.64 71.7796L118.531 69.2627L118.531 69.2632L121.64 71.7801ZM146.415 68.5216H120.085V72.5216H146.415V68.5216ZM144.415 70.5211V70.5216H148.415V70.5211H144.415Z" fill="url(#paint5_linear_0_4549)" mask="url(#path-5-inside-3_0_4549)"/>
</g>
<defs>
<filter id="filter0_bd_0_4549" x="0" y="0" width="141.5" height="127.307" filterUnits="userSpaceOnUse" color-interpolation-filters="sRGB">
<feFlood flood-opacity="0" result="BackgroundImageFix"/>
<feGaussianBlur in="BackgroundImageFix" stdDeviation="7"/>
<feComposite in2="SourceAlpha" operator="in" result="effect1_backgroundBlur_0_4549"/>
<feColorMatrix in="SourceAlpha" type="matrix" values="0 0 0 0 0 0 0 0 0 0 0 0 0 0 0 0 0 0 127 0" result="hardAlpha"/>
<feOffset dx="-21" dy="15"/>
<feGaussianBlur stdDeviation="25"/>
<feComposite in2="hardAlpha" operator="out"/>
<feColorMatrix type="matrix" values="0 0 0 0 0.113438 0 0 0 0 0.148981 0 0 0 0 0.275 0 0 0 0.25 0"/>
<feBlend mode="normal" in2="effect1_backgroundBlur_0_4549" result="effect2_dropShadow_0_4549"/>
<feBlend mode="normal" in="SourceGraphic" in2="effect2_dropShadow_0_4549" result="shape"/>
</filter>
<filter id="filter1_bd_0_4549" x="9.65112" y="8.21426" width="157.424" height="137.786" filterUnits="userSpaceOnUse" color-interpolation-filters="sRGB">
<feFlood flood-opacity="0" result="BackgroundImageFix"/>
<feGaussianBlur in="BackgroundImageFix" stdDeviation="7"/>
<feComposite in2="SourceAlpha" operator="in" result="effect1_backgroundBlur_0_4549"/>
<feColorMatrix in="SourceAlpha" type="matrix" values="0 0 0 0 0 0 0 0 0 0 0 0 0 0 0 0 0 0 127 0" result="hardAlpha"/>
<feOffset dx="-21" dy="15"/>
<feGaussianBlur stdDeviation="25"/>
<feComposite in2="hardAlpha" operator="out"/>
<feColorMatrix type="matrix" values="0 0 0 0 0.113725 0 0 0 0 0.14902 0 0 0 0 0.27451 0 0 0 0.25 0"/>
<feBlend mode="normal" in2="effect1_backgroundBlur_0_4549" result="effect2_dropShadow_0_4549"/>
<feBlend mode="normal" in="SourceGraphic" in2="effect2_dropShadow_0_4549" result="shape"/>
</filter>
<filter id="filter2_bd_0_4549" x="41.5" y="8.21426" width="141.5" height="127.307" filterUnits="userSpaceOnUse" color-interpolation-filters="sRGB">
<feFlood flood-opacity="0" result="BackgroundImageFix"/>
<feGaussianBlur in="BackgroundImageFix" stdDeviation="7"/>
<feComposite in2="SourceAlpha" operator="in" result="effect1_backgroundBlur_0_4549"/>
<feColorMatrix in="SourceAlpha" type="matrix" values="0 0 0 0 0 0 0 0 0 0 0 0 0 0 0 0 0 0 127 0" result="hardAlpha"/>
<feOffset dx="-21" dy="15"/>
<feGaussianBlur stdDeviation="25"/>
<feComposite in2="hardAlpha" operator="out"/>
<feColorMatrix type="matrix" values="0 0 0 0 0.113438 0 0 0 0 0.148981 0 0 0 0 0.275 0 0 0 0.25 0"/>
<feBlend mode="normal" in2="effect1_backgroundBlur_0_4549" result="effect2_dropShadow_0_4549"/>
<feBlend mode="normal" in="SourceGraphic" in2="effect2_dropShadow_0_4549" result="shape"/>
</filter>
<linearGradient id="paint0_linear_0_4549" x1="93.6802" y1="35.8214" x2="93.6802" y2="65.3928" gradientUnits="userSpaceOnUse">
<stop stop-color="white"/>
<stop offset="1" stop-color="white" stop-opacity="0"/>
</linearGradient>
<linearGradient id="paint1_linear_0_4549" x1="91.75" y1="35" x2="91.75" y2="62.3073" gradientUnits="userSpaceOnUse">
<stop stop-color="white"/>
<stop offset="1" stop-color="white" stop-opacity="0"/>
</linearGradient>
<linearGradient id="paint2_linear_0_4549" x1="109.363" y1="31.1275" x2="109.363" y2="86.2806" gradientUnits="userSpaceOnUse">
<stop stop-color="white"/>
<stop offset="1" stop-color="white" stop-opacity="0"/>
</linearGradient>
<linearGradient id="paint3_linear_0_4549" x1="109.363" y1="43.2143" x2="109.363" y2="81" gradientUnits="userSpaceOnUse">
<stop stop-color="white"/>
<stop offset="1" stop-color="white" stop-opacity="0"/>
</linearGradient>
<linearGradient id="paint4_linear_0_4549" x1="135.18" y1="44.0357" x2="135.18" y2="73.6071" gradientUnits="userSpaceOnUse">
<stop stop-color="white"/>
<stop offset="1" stop-color="white" stop-opacity="0"/>
</linearGradient>
<linearGradient id="paint5_linear_0_4549" x1="133.25" y1="43.2143" x2="133.25" y2="70.5216" gradientUnits="userSpaceOnUse">
<stop stop-color="white"/>
<stop offset="1" stop-color="white" stop-opacity="0"/>
</linearGradient>
</defs>
</svg>
