<svg width="120" height="148" viewBox="0 0 120 148" fill="none" xmlns="http://www.w3.org/2000/svg">
<g filter="url(#filter0_f_0_2180)">
<ellipse cx="66.602" cy="52.7945" rx="8.56706" ry="8.01757" fill="#FFC701" fill-opacity="0.5"/>
</g>
<path d="M74.4881 53.0574C74.4881 57.0947 70.9827 60.4121 66.6019 60.4121C62.2211 60.4121 58.7157 57.0947 58.7157 53.0574C58.7157 49.02 62.2211 45.7027 66.6019 45.7027C70.9827 45.7027 74.4881 49.02 74.4881 53.0574Z" fill="url(#paint0_linear_0_2180)" stroke="url(#paint1_linear_0_2180)" stroke-width="0.8"/>
<mask id="mask0_0_2180" style="mask-type:alpha" maskUnits="userSpaceOnUse" x="58" y="49" width="17" height="12">
<path d="M74.8881 53.0573C74.8881 57.3401 71.1782 60.812 66.6019 60.812C62.0256 60.812 58.3157 57.3401 58.3157 53.0573C58.3157 48.7745 61.3936 49.7714 65.9699 49.7714C70.5462 49.7714 74.8881 48.7745 74.8881 53.0573Z" fill="url(#paint2_linear_0_2180)"/>
</mask>
<g mask="url(#mask0_0_2180)">
<g filter="url(#filter1_f_0_2180)">
<path fill-rule="evenodd" clip-rule="evenodd" d="M73.1325 72.9039C73.1558 72.9041 73.1791 72.9042 73.2024 72.9042C76.5377 72.9042 79.2415 70.3739 79.2415 67.2525C79.2415 64.1312 76.5377 61.6008 73.2024 61.6008C73.1791 61.6008 73.1558 61.6009 73.1325 61.6012V61.6008H69.2826C69.3669 61.1306 69.4107 60.6475 69.4107 60.1549C69.4107 55.364 65.2607 51.4802 60.1415 51.4802C55.0222 51.4802 50.8722 55.364 50.8722 60.1549C50.8722 60.6667 50.9195 61.1682 51.0104 61.6557C48.075 62.0402 45.8161 64.3995 45.8161 67.2525C45.8161 70.3739 48.5199 72.9042 51.8552 72.9042C51.8788 72.9042 51.9023 72.9041 51.9258 72.9039L51.9255 72.9042H73.1325V72.9039Z" fill="#E18700"/>
</g>
</g>
<g filter="url(#filter2_bd_0_2180)">
<mask id="path-5-inside-1_0_2180" fill="white">
<path fill-rule="evenodd" clip-rule="evenodd" d="M69.6217 73.5609C69.6451 73.5611 69.6685 73.5613 69.6919 73.5613C73.0272 73.5613 75.731 71.0309 75.731 67.9095C75.731 64.7882 73.0272 62.2578 69.6919 62.2578C69.6685 62.2578 69.6451 62.2579 69.6217 62.2582V62.2578H68.0612C68.1176 61.871 68.1467 61.4761 68.1467 61.0749C68.1467 56.2839 63.9967 52.4001 58.8774 52.4001C53.7581 52.4001 49.6081 56.2839 49.6081 61.0749C49.6081 61.527 49.6451 61.971 49.7163 62.4044C49.2754 62.3085 48.816 62.2578 48.3439 62.2578C45.0086 62.2578 42.3048 64.7882 42.3048 67.9095C42.3048 71.0309 45.0086 73.5613 48.3439 73.5613C48.3676 73.5613 48.3914 73.5611 48.4151 73.5609L48.4148 73.5613H69.6217V73.5609Z"/>
</mask>
<path fill-rule="evenodd" clip-rule="evenodd" d="M69.6217 73.5609C69.6451 73.5611 69.6685 73.5613 69.6919 73.5613C73.0272 73.5613 75.731 71.0309 75.731 67.9095C75.731 64.7882 73.0272 62.2578 69.6919 62.2578C69.6685 62.2578 69.6451 62.2579 69.6217 62.2582V62.2578H68.0612C68.1176 61.871 68.1467 61.4761 68.1467 61.0749C68.1467 56.2839 63.9967 52.4001 58.8774 52.4001C53.7581 52.4001 49.6081 56.2839 49.6081 61.0749C49.6081 61.527 49.6451 61.971 49.7163 62.4044C49.2754 62.3085 48.816 62.2578 48.3439 62.2578C45.0086 62.2578 42.3048 64.7882 42.3048 67.9095C42.3048 71.0309 45.0086 73.5613 48.3439 73.5613C48.3676 73.5613 48.3914 73.5611 48.4151 73.5609L48.4148 73.5613H69.6217V73.5609Z" fill="url(#paint3_linear_0_2180)" shape-rendering="crispEdges"/>
<path d="M69.6217 73.5609L69.6303 72.7609C69.4167 72.7586 69.211 72.8419 69.0591 72.9922C68.9072 73.1425 68.8217 73.3472 68.8217 73.5609H69.6217ZM69.6217 62.2582H68.8217C68.8217 62.4718 68.9072 62.6766 69.0591 62.8269C69.211 62.9771 69.4166 63.0604 69.6303 63.0581L69.6217 62.2582ZM69.6217 62.2578H70.4217C70.4217 61.816 70.0636 61.4578 69.6217 61.4578V62.2578ZM68.0612 62.2578L67.2696 62.1425C67.2361 62.3723 67.3042 62.6054 67.4561 62.7811C67.6081 62.9568 67.8289 63.0578 68.0612 63.0578V62.2578ZM49.7163 62.4044L49.5463 63.1861C49.8052 63.2424 50.0752 63.1669 50.2673 62.9844C50.4594 62.8019 50.5487 62.5361 50.5057 62.2746L49.7163 62.4044ZM48.4151 73.5609L49.0272 74.076C49.2285 73.8368 49.272 73.5022 49.1385 73.2194C49.0051 72.9366 48.7191 72.7575 48.4065 72.7609L48.4151 73.5609ZM48.4148 73.5613L47.8027 73.0461C47.6023 73.2842 47.5582 73.6168 47.6895 73.8988C47.8207 74.1809 48.1036 74.3613 48.4148 74.3613V73.5613ZM69.6217 73.5613V74.3613C70.0636 74.3613 70.4217 74.0031 70.4217 73.5613H69.6217ZM69.6132 74.3608C69.6394 74.3611 69.6657 74.3613 69.6919 74.3613V72.7613C69.6713 72.7613 69.6508 72.7612 69.6303 72.7609L69.6132 74.3608ZM69.6919 74.3613C73.4183 74.3613 76.531 71.5218 76.531 67.9095H74.931C74.931 70.5399 72.6362 72.7613 69.6919 72.7613V74.3613ZM76.531 67.9095C76.531 64.2972 73.4183 61.4578 69.6919 61.4578V63.0578C72.6362 63.0578 74.931 65.2791 74.931 67.9095H76.531ZM69.6919 61.4578C69.6657 61.4578 69.6394 61.4579 69.6132 61.4582L69.6303 63.0581C69.6508 63.0579 69.6714 63.0578 69.6919 63.0578V61.4578ZM68.8217 62.2578V62.2582H70.4217V62.2578H68.8217ZM68.0612 63.0578H69.6217V61.4578H68.0612V63.0578ZM68.8529 62.3731C68.9148 61.9483 68.9467 61.5149 68.9467 61.0749H67.3467C67.3467 61.4374 67.3204 61.7937 67.2696 62.1425L68.8529 62.3731ZM68.9467 61.0749C68.9467 55.793 64.3877 51.6001 58.8774 51.6001V53.2001C63.6056 53.2001 67.3467 56.7749 67.3467 61.0749H68.9467ZM58.8774 51.6001C53.3671 51.6001 48.8081 55.793 48.8081 61.0749H50.4081C50.4081 56.7749 54.1492 53.2001 58.8774 53.2001V51.6001ZM48.8081 61.0749C48.8081 61.5706 48.8486 62.058 48.9269 62.5341L50.5057 62.2746C50.4415 61.8839 50.4081 61.4833 50.4081 61.0749H48.8081ZM49.8863 61.6227C49.3898 61.5147 48.8733 61.4578 48.3439 61.4578V63.0578C48.7586 63.0578 49.161 63.1023 49.5463 63.1861L49.8863 61.6227ZM48.3439 61.4578C44.6175 61.4578 41.5048 64.2972 41.5048 67.9095H43.1048C43.1048 65.2791 45.3996 63.0578 48.3439 63.0578V61.4578ZM41.5048 67.9095C41.5048 71.5218 44.6175 74.3613 48.3439 74.3613V72.7613C45.3996 72.7613 43.1048 70.5399 43.1048 67.9095H41.5048ZM48.3439 74.3613C48.3706 74.3613 48.3972 74.3611 48.4237 74.3608L48.4065 72.7609C48.3856 72.7611 48.3647 72.7613 48.3439 72.7613V74.3613ZM49.0268 74.0764L49.0272 74.076L47.803 73.0458L47.8027 73.0461L49.0268 74.0764ZM69.6217 72.7613H48.4148V74.3613H69.6217V72.7613ZM68.8217 73.5609V73.5613H70.4217V73.5609H68.8217Z" fill="url(#paint4_linear_0_2180)" mask="url(#path-5-inside-1_0_2180)"/>
</g>
<g filter="url(#filter3_bd_0_2180)">
<mask id="path-7-inside-2_0_2180" fill="white">
<path fill-rule="evenodd" clip-rule="evenodd" d="M80.5853 67.6928C80.6021 67.693 80.6189 67.6931 80.6358 67.6931C83.0462 67.6931 85.0002 65.8644 85.0002 63.6086C85.0002 61.3528 83.0462 59.5242 80.6358 59.5242C80.6189 59.5242 80.6021 59.5243 80.5853 59.5244V59.5242H79.4576C79.4983 59.2447 79.5193 58.9593 79.5193 58.6693C79.5193 55.2069 76.5202 52.4001 72.8205 52.4001C69.1209 52.4001 66.1217 55.2069 66.1217 58.6693C66.1217 58.996 66.1484 59.3168 66.1999 59.63C65.8814 59.5608 65.5494 59.5242 65.2084 59.5242C62.798 59.5242 60.844 61.3528 60.844 63.6086C60.844 65.8644 62.798 67.6931 65.2084 67.6931C65.2254 67.6931 65.2425 67.693 65.2594 67.6928L65.2592 67.6931H80.5853V67.6928Z"/>
</mask>
<path fill-rule="evenodd" clip-rule="evenodd" d="M80.5853 67.6928C80.6021 67.693 80.6189 67.6931 80.6358 67.6931C83.0462 67.6931 85.0002 65.8644 85.0002 63.6086C85.0002 61.3528 83.0462 59.5242 80.6358 59.5242C80.6189 59.5242 80.6021 59.5243 80.5853 59.5244V59.5242H79.4576C79.4983 59.2447 79.5193 58.9593 79.5193 58.6693C79.5193 55.2069 76.5202 52.4001 72.8205 52.4001C69.1209 52.4001 66.1217 55.2069 66.1217 58.6693C66.1217 58.996 66.1484 59.3168 66.1999 59.63C65.8814 59.5608 65.5494 59.5242 65.2084 59.5242C62.798 59.5242 60.844 61.3528 60.844 63.6086C60.844 65.8644 62.798 67.6931 65.2084 67.6931C65.2254 67.6931 65.2425 67.693 65.2594 67.6928L65.2592 67.6931H80.5853V67.6928Z" fill="url(#paint5_linear_0_2180)" shape-rendering="crispEdges"/>
<path d="M80.5853 67.6928L80.5938 66.8928C80.3801 66.8906 80.1745 66.9739 80.0226 67.1241C79.8707 67.2744 79.7853 67.4792 79.7853 67.6928H80.5853ZM80.5853 59.5244H79.7853C79.7853 59.7381 79.8707 59.9429 80.0226 60.0931C80.1745 60.2434 80.3801 60.3267 80.5938 60.3244L80.5853 59.5244ZM80.5853 59.5242H81.3853C81.3853 59.0824 81.0271 58.7242 80.5853 58.7242V59.5242ZM79.4576 59.5242L78.6659 59.4088C78.6324 59.6387 78.7005 59.8718 78.8525 60.0475C79.0044 60.2232 79.2253 60.3242 79.4576 60.3242V59.5242ZM66.1999 59.63L66.0299 60.4118C66.2888 60.4681 66.5588 60.3925 66.7509 60.21C66.943 60.0275 67.0323 59.7618 66.9893 59.5003L66.1999 59.63ZM65.2594 67.6928L65.871 68.2085C66.0727 67.9694 66.1165 67.6346 65.9831 67.3517C65.8497 67.0687 65.5637 66.8895 65.2509 66.8928L65.2594 67.6928ZM65.2592 67.6931L64.6476 67.1774C64.447 67.4153 64.4026 67.748 64.5338 68.0303C64.665 68.3125 64.948 68.4931 65.2592 68.4931V67.6931ZM80.5853 67.6931V68.4931C81.0271 68.4931 81.3853 68.1349 81.3853 67.6931H80.5853ZM80.5768 68.4928C80.5964 68.493 80.6161 68.4931 80.6358 68.4931V66.8931C80.6218 66.8931 80.6078 66.893 80.5938 66.8928L80.5768 68.4928ZM80.6358 68.4931C83.4372 68.4931 85.8002 66.3554 85.8002 63.6086H84.2002C84.2002 65.3734 82.6551 66.8931 80.6358 66.8931V68.4931ZM85.8002 63.6086C85.8002 60.8619 83.4372 58.7242 80.6358 58.7242V60.3242C82.6551 60.3242 84.2002 61.8438 84.2002 63.6086H85.8002ZM80.6358 58.7242C80.6161 58.7242 80.5964 58.7243 80.5768 58.7245L80.5938 60.3244C80.6078 60.3243 80.6218 60.3242 80.6358 60.3242V58.7242ZM79.7853 59.5242V59.5244H81.3853V59.5242H79.7853ZM79.4576 60.3242H80.5853V58.7242H79.4576V60.3242ZM80.2492 59.6395C80.2955 59.322 80.3193 58.998 80.3193 58.6693H78.7193C78.7193 58.9205 78.7011 59.1673 78.6659 59.4088L80.2492 59.6395ZM80.3193 58.6693C80.3193 54.716 76.9112 51.6001 72.8205 51.6001V53.2001C76.1291 53.2001 78.7193 55.6979 78.7193 58.6693H80.3193ZM72.8205 51.6001C68.7298 51.6001 65.3217 54.716 65.3217 58.6693H66.9217C66.9217 55.6979 69.5119 53.2001 72.8205 53.2001V51.6001ZM65.3217 58.6693C65.3217 59.0396 65.352 59.4039 65.4105 59.7598L66.9893 59.5003C66.9448 59.2298 66.9217 58.9523 66.9217 58.6693H65.3217ZM66.3698 58.8483C65.9957 58.767 65.6068 58.7242 65.2084 58.7242V60.3242C65.4921 60.3242 65.767 60.3546 66.0299 60.4118L66.3698 58.8483ZM65.2084 58.7242C62.407 58.7242 60.044 60.8619 60.044 63.6086H61.644C61.644 61.8438 63.1891 60.3242 65.2084 60.3242V58.7242ZM60.044 63.6086C60.044 66.3554 62.407 68.4931 65.2084 68.4931V66.8931C63.1891 66.8931 61.644 65.3734 61.644 63.6086H60.044ZM65.2084 68.4931C65.2283 68.4931 65.2482 68.493 65.268 68.4927L65.2509 66.8928C65.2367 66.893 65.2226 66.8931 65.2084 66.8931V68.4931ZM65.8708 68.2088L65.871 68.2085L64.6479 67.1771L64.6476 67.1774L65.8708 68.2088ZM80.5853 66.8931H65.2592V68.4931H80.5853V66.8931ZM79.7853 67.6928V67.6931H81.3853V67.6928H79.7853Z" fill="url(#paint6_linear_0_2180)" mask="url(#path-7-inside-2_0_2180)"/>
</g>
<g filter="url(#filter4_bdd_0_2180)">
<path d="M50.825 72.2269C51.1265 71.8648 51.7136 72.0319 51.7485 72.4898L51.9128 74.643C51.9877 75.6245 51.0215 76.3986 50.0623 76.1256C49.1031 75.8525 48.7611 74.706 49.4074 73.9297L50.825 72.2269Z" fill="url(#paint7_linear_0_2180)" stroke="url(#paint8_linear_0_2180)" stroke-width="0.8"/>
<path d="M58.9013 72.2269C59.2028 71.8648 59.7899 72.0319 59.8249 72.4898L59.9892 74.643C60.0641 75.6245 59.0979 76.3986 58.1387 76.1256C57.1795 75.8525 56.8375 74.706 57.4838 73.9297L58.9013 72.2269Z" fill="url(#paint9_linear_0_2180)" stroke="url(#paint10_linear_0_2180)" stroke-width="0.8"/>
<path d="M66.978 72.2269C67.2795 71.8648 67.8666 72.0319 67.9015 72.4898L68.0658 74.643C68.1407 75.6245 67.1745 76.3986 66.2153 76.1256C65.2561 75.8525 64.9142 74.706 65.5604 73.9297L66.978 72.2269Z" fill="url(#paint11_linear_0_2180)" stroke="url(#paint12_linear_0_2180)" stroke-width="0.8"/>
</g>
<g filter="url(#filter5_bdd_0_2180)">
<path d="M52.956 78.2099C53.2575 77.8478 53.8446 78.0149 53.8795 78.4728L54.0438 80.626C54.1187 81.6075 53.1525 82.3816 52.1933 82.1086C51.2341 81.8355 50.8922 80.689 51.5384 79.9128L52.956 78.2099Z" fill="url(#paint13_linear_0_2180)" stroke="url(#paint14_linear_0_2180)" stroke-width="0.8"/>
<path d="M59.7793 78.2099C60.0808 77.8478 60.6679 78.0149 60.7028 78.4728L60.8671 80.626C60.942 81.6075 59.9758 82.3816 59.0166 82.1086C58.0574 81.8355 57.7155 80.689 58.3617 79.9128L59.7793 78.2099Z" fill="url(#paint15_linear_0_2180)" stroke="url(#paint16_linear_0_2180)" stroke-width="0.8"/>
</g>
<defs>
<filter id="filter0_f_0_2180" x="14.0349" y="0.776901" width="105.134" height="104.035" filterUnits="userSpaceOnUse" color-interpolation-filters="sRGB">
<feFlood flood-opacity="0" result="BackgroundImageFix"/>
<feBlend mode="normal" in="SourceGraphic" in2="BackgroundImageFix" result="shape"/>
<feGaussianBlur stdDeviation="22" result="effect1_foregroundBlur_0_2180"/>
</filter>
<filter id="filter1_f_0_2180" x="31.8161" y="37.4802" width="61.4254" height="49.4241" filterUnits="userSpaceOnUse" color-interpolation-filters="sRGB">
<feFlood flood-opacity="0" result="BackgroundImageFix"/>
<feBlend mode="normal" in="SourceGraphic" in2="BackgroundImageFix" result="shape"/>
<feGaussianBlur stdDeviation="7" result="effect1_foregroundBlur_0_2180"/>
</filter>
<filter id="filter2_bd_0_2180" x="-28.6952" y="17.4001" width="133.426" height="121.161" filterUnits="userSpaceOnUse" color-interpolation-filters="sRGB">
<feFlood flood-opacity="0" result="BackgroundImageFix"/>
<feGaussianBlur in="BackgroundImageFix" stdDeviation="7"/>
<feComposite in2="SourceAlpha" operator="in" result="effect1_backgroundBlur_0_2180"/>
<feColorMatrix in="SourceAlpha" type="matrix" values="0 0 0 0 0 0 0 0 0 0 0 0 0 0 0 0 0 0 127 0" result="hardAlpha"/>
<feOffset dx="-21" dy="15"/>
<feGaussianBlur stdDeviation="25"/>
<feComposite in2="hardAlpha" operator="out"/>
<feColorMatrix type="matrix" values="0 0 0 0 0.113725 0 0 0 0 0.14902 0 0 0 0 0.27451 0 0 0 0.25 0"/>
<feBlend mode="normal" in2="effect1_backgroundBlur_0_2180" result="effect2_dropShadow_0_2180"/>
<feBlend mode="normal" in="SourceGraphic" in2="effect2_dropShadow_0_2180" result="shape"/>
</filter>
<filter id="filter3_bd_0_2180" x="-10.156" y="17.4001" width="124.156" height="115.293" filterUnits="userSpaceOnUse" color-interpolation-filters="sRGB">
<feFlood flood-opacity="0" result="BackgroundImageFix"/>
<feGaussianBlur in="BackgroundImageFix" stdDeviation="7"/>
<feComposite in2="SourceAlpha" operator="in" result="effect1_backgroundBlur_0_2180"/>
<feColorMatrix in="SourceAlpha" type="matrix" values="0 0 0 0 0 0 0 0 0 0 0 0 0 0 0 0 0 0 127 0" result="hardAlpha"/>
<feOffset dx="-21" dy="15"/>
<feGaussianBlur stdDeviation="25"/>
<feComposite in2="hardAlpha" operator="out"/>
<feColorMatrix type="matrix" values="0 0 0 0 0.113438 0 0 0 0 0.148981 0 0 0 0 0.275 0 0 0 0.25 0"/>
<feBlend mode="normal" in2="effect1_backgroundBlur_0_2180" result="effect2_dropShadow_0_2180"/>
<feBlend mode="normal" in="SourceGraphic" in2="effect2_dropShadow_0_2180" result="shape"/>
</filter>
<filter id="filter4_bdd_0_2180" x="-22.3282" y="23.6339" width="131.802" height="117.943" filterUnits="userSpaceOnUse" color-interpolation-filters="sRGB">
<feFlood flood-opacity="0" result="BackgroundImageFix"/>
<feGaussianBlur in="BackgroundImageFix" stdDeviation="7"/>
<feComposite in2="SourceAlpha" operator="in" result="effect1_backgroundBlur_0_2180"/>
<feColorMatrix in="SourceAlpha" type="matrix" values="0 0 0 0 0 0 0 0 0 0 0 0 0 0 0 0 0 0 127 0" result="hardAlpha"/>
<feOffset dx="-21" dy="15"/>
<feGaussianBlur stdDeviation="25"/>
<feComposite in2="hardAlpha" operator="out"/>
<feColorMatrix type="matrix" values="0 0 0 0 0.113438 0 0 0 0 0.148981 0 0 0 0 0.275 0 0 0 0.25 0"/>
<feBlend mode="normal" in2="effect1_backgroundBlur_0_2180" result="effect2_dropShadow_0_2180"/>
<feColorMatrix in="SourceAlpha" type="matrix" values="0 0 0 0 0 0 0 0 0 0 0 0 0 0 0 0 0 0 127 0" result="hardAlpha"/>
<feOffset dy="-7"/>
<feGaussianBlur stdDeviation="20.5"/>
<feComposite in2="hardAlpha" operator="out"/>
<feColorMatrix type="matrix" values="0 0 0 0 0.1375 0 0 0 0 0.74125 0 0 0 0 1 0 0 0 0.3 0"/>
<feBlend mode="normal" in2="effect2_dropShadow_0_2180" result="effect3_dropShadow_0_2180"/>
<feBlend mode="normal" in="SourceGraphic" in2="effect3_dropShadow_0_2180" result="shape"/>
</filter>
<filter id="filter5_bdd_0_2180" x="-20.1972" y="29.6169" width="122.473" height="117.943" filterUnits="userSpaceOnUse" color-interpolation-filters="sRGB">
<feFlood flood-opacity="0" result="BackgroundImageFix"/>
<feGaussianBlur in="BackgroundImageFix" stdDeviation="7"/>
<feComposite in2="SourceAlpha" operator="in" result="effect1_backgroundBlur_0_2180"/>
<feColorMatrix in="SourceAlpha" type="matrix" values="0 0 0 0 0 0 0 0 0 0 0 0 0 0 0 0 0 0 127 0" result="hardAlpha"/>
<feOffset dx="-21" dy="15"/>
<feGaussianBlur stdDeviation="25"/>
<feComposite in2="hardAlpha" operator="out"/>
<feColorMatrix type="matrix" values="0 0 0 0 0.113438 0 0 0 0 0.148981 0 0 0 0 0.275 0 0 0 0.25 0"/>
<feBlend mode="normal" in2="effect1_backgroundBlur_0_2180" result="effect2_dropShadow_0_2180"/>
<feColorMatrix in="SourceAlpha" type="matrix" values="0 0 0 0 0 0 0 0 0 0 0 0 0 0 0 0 0 0 127 0" result="hardAlpha"/>
<feOffset dy="-7"/>
<feGaussianBlur stdDeviation="20.5"/>
<feComposite in2="hardAlpha" operator="out"/>
<feColorMatrix type="matrix" values="0 0 0 0 0.1375 0 0 0 0 0.74125 0 0 0 0 1 0 0 0 0.3 0"/>
<feBlend mode="normal" in2="effect2_dropShadow_0_2180" result="effect3_dropShadow_0_2180"/>
<feBlend mode="normal" in="SourceGraphic" in2="effect3_dropShadow_0_2180" result="shape"/>
</filter>
<linearGradient id="paint0_linear_0_2180" x1="66.6019" y1="45.3027" x2="66.6019" y2="60.8121" gradientUnits="userSpaceOnUse">
<stop stop-color="#FFE600"/>
<stop offset="1" stop-color="#FF7A00"/>
</linearGradient>
<linearGradient id="paint1_linear_0_2180" x1="66.6019" y1="45.3027" x2="66.6019" y2="60.8121" gradientUnits="userSpaceOnUse">
<stop stop-color="white"/>
<stop offset="1" stop-color="white" stop-opacity="0"/>
</linearGradient>
<linearGradient id="paint2_linear_0_2180" x1="66.6019" y1="45.3026" x2="66.6019" y2="60.812" gradientUnits="userSpaceOnUse">
<stop stop-color="#FFD600"/>
<stop offset="1" stop-color="#FF7A00"/>
</linearGradient>
<linearGradient id="paint3_linear_0_2180" x1="59.0178" y1="45.6312" x2="59.0178" y2="76.5184" gradientUnits="userSpaceOnUse">
<stop stop-color="white"/>
<stop offset="1" stop-color="white" stop-opacity="0"/>
</linearGradient>
<linearGradient id="paint4_linear_0_2180" x1="59.0178" y1="52.4001" x2="59.0178" y2="73.5612" gradientUnits="userSpaceOnUse">
<stop stop-color="white"/>
<stop offset="1" stop-color="white" stop-opacity="0"/>
</linearGradient>
<linearGradient id="paint5_linear_0_2180" x1="74.0456" y1="52.8601" x2="74.0456" y2="69.421" gradientUnits="userSpaceOnUse">
<stop stop-color="white"/>
<stop offset="1" stop-color="white" stop-opacity="0"/>
</linearGradient>
<linearGradient id="paint6_linear_0_2180" x1="72.922" y1="52.4001" x2="72.922" y2="67.693" gradientUnits="userSpaceOnUse">
<stop stop-color="white"/>
<stop offset="1" stop-color="white" stop-opacity="0"/>
</linearGradient>
<linearGradient id="paint7_linear_0_2180" x1="51.9815" y1="70.2208" x2="50.1733" y2="76.5728" gradientUnits="userSpaceOnUse">
<stop stop-color="#138EFF"/>
<stop offset="1" stop-color="#00E0FF"/>
</linearGradient>
<linearGradient id="paint8_linear_0_2180" x1="51.9815" y1="70.2208" x2="50.1733" y2="76.5728" gradientUnits="userSpaceOnUse">
<stop stop-color="white"/>
<stop offset="1" stop-color="white" stop-opacity="0"/>
</linearGradient>
<linearGradient id="paint9_linear_0_2180" x1="60.0579" y1="70.2208" x2="58.2497" y2="76.5728" gradientUnits="userSpaceOnUse">
<stop stop-color="#138EFF"/>
<stop offset="1" stop-color="#00E0FF"/>
</linearGradient>
<linearGradient id="paint10_linear_0_2180" x1="60.0579" y1="70.2208" x2="58.2497" y2="76.5728" gradientUnits="userSpaceOnUse">
<stop stop-color="white"/>
<stop offset="1" stop-color="white" stop-opacity="0"/>
</linearGradient>
<linearGradient id="paint11_linear_0_2180" x1="68.1345" y1="70.2208" x2="66.3263" y2="76.5728" gradientUnits="userSpaceOnUse">
<stop stop-color="#138EFF"/>
<stop offset="1" stop-color="#00E0FF"/>
</linearGradient>
<linearGradient id="paint12_linear_0_2180" x1="68.1345" y1="70.2208" x2="66.3263" y2="76.5728" gradientUnits="userSpaceOnUse">
<stop stop-color="white"/>
<stop offset="1" stop-color="white" stop-opacity="0"/>
</linearGradient>
<linearGradient id="paint13_linear_0_2180" x1="54.1126" y1="76.2038" x2="52.3043" y2="82.5558" gradientUnits="userSpaceOnUse">
<stop stop-color="#138EFF"/>
<stop offset="1" stop-color="#00E0FF"/>
</linearGradient>
<linearGradient id="paint14_linear_0_2180" x1="54.1126" y1="76.2038" x2="52.3043" y2="82.5558" gradientUnits="userSpaceOnUse">
<stop stop-color="white"/>
<stop offset="1" stop-color="white" stop-opacity="0"/>
</linearGradient>
<linearGradient id="paint15_linear_0_2180" x1="60.9359" y1="76.2038" x2="59.1276" y2="82.5558" gradientUnits="userSpaceOnUse">
<stop stop-color="#138EFF"/>
<stop offset="1" stop-color="#00E0FF"/>
</linearGradient>
<linearGradient id="paint16_linear_0_2180" x1="60.9359" y1="76.2038" x2="59.1276" y2="82.5558" gradientUnits="userSpaceOnUse">
<stop stop-color="white"/>
<stop offset="1" stop-color="white" stop-opacity="0"/>
</linearGradient>
</defs>
</svg>
