<svg width="55" height="81" viewBox="0 0 55 81" fill="none" xmlns="http://www.w3.org/2000/svg">
<g filter="url(#filter0_f_2537_7405)">
<ellipse cx="27.4223" cy="69.7754" rx="19.875" ry="3.50735" fill="#2D56A7" fill-opacity="0.5"/>
</g>
<path d="M53.9999 17.8221V41.0583C53.9979 42.1447 53.7088 43.2116 53.1617 44.1522C52.6146 45.0927 51.8286 45.8741 50.8823 46.4181L30.2435 58.2531C29.3862 58.6558 28.4477 58.8665 27.5 58.8727L11.1323 26.4005L53.1582 14.693C53.7038 15.6472 53.9937 16.7254 53.9999 17.8221Z" fill="url(#paint0_linear_2537_7405)"/>
<g filter="url(#filter1_bii_2537_7405)">
<path d="M53.1582 14.693L27.5 29.4402L1.8418 14.693C2.36852 13.7868 3.11979 13.0296 4.02415 12.4933L24.3824 0.813266C26.3153 -0.271089 28.6847 -0.271089 30.6176 0.813266L50.9758 12.4933C51.88 13.0293 52.6313 13.7884 53.1582 14.693Z" fill="white" fill-opacity="0.2"/>
</g>
<g filter="url(#filter2_bii_2537_7405)">
<path d="M27.5 29.4402V58.8727C26.517 58.8713 25.5471 58.6489 24.6629 58.2221L4.11764 46.4181C3.17133 45.8741 2.38533 45.0927 1.83821 44.1522C1.2911 43.2116 1.00207 42.1447 1 41.0583V17.8221C1.00515 16.7245 1.29507 15.6468 1.84176 14.693L27.5 29.4402Z" fill="white" fill-opacity="0.4"/>
</g>
<defs>
<filter id="filter0_f_2537_7405" x="0.547363" y="59.2681" width="53.75" height="21.0147" filterUnits="userSpaceOnUse" color-interpolation-filters="sRGB">
<feFlood flood-opacity="0" result="BackgroundImageFix"/>
<feBlend mode="normal" in="SourceGraphic" in2="BackgroundImageFix" result="shape"/>
<feGaussianBlur stdDeviation="3.5" result="effect1_foregroundBlur_2537_7405"/>
</filter>
<filter id="filter1_bii_2537_7405" x="-2.1582" y="-4" width="59.3164" height="37.4402" filterUnits="userSpaceOnUse" color-interpolation-filters="sRGB">
<feFlood flood-opacity="0" result="BackgroundImageFix"/>
<feGaussianBlur in="BackgroundImageFix" stdDeviation="2"/>
<feComposite in2="SourceAlpha" operator="in" result="effect1_backgroundBlur_2537_7405"/>
<feBlend mode="normal" in="SourceGraphic" in2="effect1_backgroundBlur_2537_7405" result="shape"/>
<feColorMatrix in="SourceAlpha" type="matrix" values="0 0 0 0 0 0 0 0 0 0 0 0 0 0 0 0 0 0 127 0" result="hardAlpha"/>
<feOffset dy="-4"/>
<feGaussianBlur stdDeviation="2"/>
<feComposite in2="hardAlpha" operator="arithmetic" k2="-1" k3="1"/>
<feColorMatrix type="matrix" values="0 0 0 0 1 0 0 0 0 1 0 0 0 0 1 0 0 0 0.05 0"/>
<feBlend mode="normal" in2="shape" result="effect2_innerShadow_2537_7405"/>
<feColorMatrix in="SourceAlpha" type="matrix" values="0 0 0 0 0 0 0 0 0 0 0 0 0 0 0 0 0 0 127 0" result="hardAlpha"/>
<feOffset dx="-4" dy="-4"/>
<feGaussianBlur stdDeviation="2"/>
<feComposite in2="hardAlpha" operator="arithmetic" k2="-1" k3="1"/>
<feColorMatrix type="matrix" values="0 0 0 0 1 0 0 0 0 1 0 0 0 0 1 0 0 0 0.05 0"/>
<feBlend mode="normal" in2="effect2_innerShadow_2537_7405" result="effect3_innerShadow_2537_7405"/>
</filter>
<filter id="filter2_bii_2537_7405" x="-3" y="10.693" width="34.5" height="52.1797" filterUnits="userSpaceOnUse" color-interpolation-filters="sRGB">
<feFlood flood-opacity="0" result="BackgroundImageFix"/>
<feGaussianBlur in="BackgroundImageFix" stdDeviation="2"/>
<feComposite in2="SourceAlpha" operator="in" result="effect1_backgroundBlur_2537_7405"/>
<feBlend mode="normal" in="SourceGraphic" in2="effect1_backgroundBlur_2537_7405" result="shape"/>
<feColorMatrix in="SourceAlpha" type="matrix" values="0 0 0 0 0 0 0 0 0 0 0 0 0 0 0 0 0 0 127 0" result="hardAlpha"/>
<feOffset dy="-4"/>
<feGaussianBlur stdDeviation="2"/>
<feComposite in2="hardAlpha" operator="arithmetic" k2="-1" k3="1"/>
<feColorMatrix type="matrix" values="0 0 0 0 1 0 0 0 0 1 0 0 0 0 1 0 0 0 0.05 0"/>
<feBlend mode="normal" in2="shape" result="effect2_innerShadow_2537_7405"/>
<feColorMatrix in="SourceAlpha" type="matrix" values="0 0 0 0 0 0 0 0 0 0 0 0 0 0 0 0 0 0 127 0" result="hardAlpha"/>
<feOffset dx="-4" dy="-4"/>
<feGaussianBlur stdDeviation="2"/>
<feComposite in2="hardAlpha" operator="arithmetic" k2="-1" k3="1"/>
<feColorMatrix type="matrix" values="0 0 0 0 1 0 0 0 0 1 0 0 0 0 1 0 0 0 0.05 0"/>
<feBlend mode="normal" in2="effect2_innerShadow_2537_7405" result="effect3_innerShadow_2537_7405"/>
</filter>
<linearGradient id="paint0_linear_2537_7405" x1="37.6323" y1="14.693" x2="37.6323" y2="58.8727" gradientUnits="userSpaceOnUse">
<stop offset="0.451042" stop-color="#2072FE"/>
<stop offset="1" stop-color="#5189F6"/>
</linearGradient>
</defs>
</svg>
