<svg width="22" height="22" viewBox="0 0 22 22" fill="none" xmlns="http://www.w3.org/2000/svg">
<g clip-path="url(#clip0_2669_6513)">
<path d="M22.043 10.0977C22.043 10.7144 22.043 11.3312 22.0269 11.977C21.965 12.3477 21.9226 12.6899 21.8726 13.0311C21.7261 14.0322 21.3938 14.9762 20.9541 15.8808C20.5374 16.7381 20.0148 17.5276 19.3806 18.2452C18.7764 18.929 18.1171 19.5471 17.3725 20.0738C16.6062 20.616 15.7818 21.0533 14.9024 21.377C14.1318 21.6607 13.3394 21.872 12.5183 21.9588C12.3406 21.9776 12.1649 22.0144 11.9883 22.043C11.3715 22.043 10.7547 22.043 10.109 22.0269C9.73827 21.965 9.39601 21.9226 9.05486 21.8726C8.05377 21.7261 7.10975 21.3938 6.20513 20.9541C5.34787 20.5374 4.55837 20.0148 3.84069 19.3806C3.15699 18.7764 2.53888 18.1171 2.01214 17.3725C1.46997 16.6062 1.03269 15.7818 0.70893 14.9024C0.42519 14.1318 0.213961 13.3394 0.127139 12.5183C0.108357 12.3406 0.0715003 12.1649 0.0429688 11.9883C0.0429687 11.3715 0.0429687 10.7547 0.0590514 10.109C0.120976 9.73827 0.163375 9.39601 0.21331 9.05485C0.35984 8.05376 0.692167 7.10974 1.13187 6.20513C1.54855 5.34787 2.07111 4.55837 2.70535 3.84069C3.30957 3.15698 3.96888 2.53888 4.7134 2.01214C5.47973 1.46998 6.30418 1.03268 7.18352 0.70893C7.95418 0.425191 8.74654 0.213961 9.56768 0.127139C9.74532 0.108357 9.92105 0.0715004 10.0977 0.0429688C10.7144 0.0429687 11.3312 0.0429687 11.9768 0.0589758C12.4232 0.135603 12.843 0.183604 13.2577 0.259163C14.6067 0.504907 15.846 1.03124 16.997 1.76724C17.8848 2.33495 18.6641 3.02785 19.361 3.82094C19.9645 4.50784 20.4841 5.2512 20.8756 6.07149C21.1731 6.69494 21.424 7.34651 21.6296 8.00615C21.7912 8.52476 21.8526 9.07467 21.9569 9.61099C21.9884 9.77267 22.0144 9.93541 22.043 10.0977ZM14.6392 6.30808C13.8134 5.48321 12.9889 4.65705 12.1603 3.83497C12.0443 3.71986 11.9191 3.60687 11.7798 3.52361C11.1668 3.15724 10.4948 3.26548 9.94648 3.81346C8.4118 5.34722 6.87891 6.88277 5.34586 8.41816C5.1081 8.65629 4.86009 8.88589 4.63975 9.13936C4.17445 9.67464 3.99741 10.3092 4.14441 10.998C4.4914 12.6237 6.44066 13.2647 7.705 12.1771C7.97574 11.9442 8.21742 11.6776 8.4732 11.4272C8.5198 11.3816 8.56989 11.3395 8.6574 11.2607C8.6574 11.4067 8.6574 11.4918 8.6574 11.577C8.6574 12.823 8.65616 14.069 8.65797 15.315C8.65876 15.8591 8.64406 16.4044 8.67416 16.947C8.75651 18.432 10.2006 19.4706 11.6404 19.0963C12.7265 18.8141 13.4398 17.8814 13.443 16.7197C13.448 14.9868 13.4443 13.2539 13.4449 11.521C13.4449 11.4465 13.4512 11.372 13.4546 11.2975C13.4772 11.2828 13.4997 11.2681 13.5222 11.2534C13.8097 11.5602 14.0762 11.8906 14.3888 12.1694C15.2865 12.9699 16.7245 12.8651 17.493 11.9642C18.2238 11.1074 18.161 9.83876 17.3343 9.00293C16.448 8.10692 15.5523 7.22029 14.6392 6.30808Z" fill="#EE5B5B"/>
<path d="M14.65 6.31882C15.5523 7.22029 16.448 8.10692 17.3343 9.00293C18.161 9.83876 18.2238 11.1074 17.493 11.9642C16.7245 12.8651 15.2865 12.9699 14.3888 12.1694C14.0762 11.8906 13.8098 11.5602 13.5222 11.2534C13.4997 11.2681 13.4772 11.2828 13.4547 11.2975C13.4513 11.372 13.4449 11.4465 13.4449 11.521C13.4443 13.2539 13.448 14.9868 13.4431 16.7197C13.4398 17.8814 12.7265 18.8141 11.6405 19.0963C10.2006 19.4706 8.75653 18.432 8.67418 16.947C8.64408 16.4044 8.65878 15.8591 8.65799 15.315C8.65618 14.069 8.65742 12.823 8.65742 11.577C8.65742 11.4918 8.65742 11.4067 8.65742 11.2607C8.56992 11.3395 8.51982 11.3816 8.47323 11.4272C8.21744 11.6776 7.97577 11.9442 7.70502 12.1771C6.44068 13.2647 4.49142 12.6237 4.14443 10.998C3.99743 10.3092 4.17447 9.67464 4.63977 9.13937C4.86011 8.88589 5.10812 8.65629 5.34589 8.41816C6.87893 6.88277 8.41183 5.34722 9.9465 3.81346C10.4948 3.26548 11.1668 3.15724 11.7798 3.52361C11.9191 3.60687 12.0443 3.71986 12.1603 3.83497C12.9889 4.65705 13.8134 5.48322 14.65 6.31882Z" fill="#F9FAFA"/>
</g>
<defs>
<clipPath id="clip0_2669_6513">
<rect width="22" height="22" fill="white"/>
</clipPath>
</defs>
</svg>
