<svg width="103" height="468" viewBox="0 0 103 468" fill="none" xmlns="http://www.w3.org/2000/svg">
<path d="M28.554 59.196H24.737V53.212H28.554V59.196ZM32.525 61.77H31.7V56.699H30.523V61.286H29.709V52.387H30.523V55.995H31.7V52.156H32.525V61.77ZM27.729 58.503V53.905H25.551V58.503H27.729ZM41.7126 54.708C41.7126 55.984 40.4256 56.864 38.2696 56.864C36.1246 56.864 34.8266 55.995 34.8266 54.708C34.8266 53.432 36.1246 52.563 38.2696 52.563C40.4256 52.563 41.7126 53.432 41.7126 54.708ZM38.2696 53.289C36.6526 53.289 35.6626 53.828 35.6626 54.708C35.6626 55.599 36.6526 56.138 38.2696 56.138C39.9086 56.138 40.8986 55.599 40.8986 54.708C40.8986 53.828 39.9086 53.289 38.2696 53.289ZM38.6876 61.781H37.8516V58.437H33.9686V57.733H42.6586V58.437H38.6876V61.781ZM55.1978 55.555H53.7348V58.074H52.8988V52.156H53.7348V54.862H55.1978V55.555ZM53.8558 59.9C53.8558 61.044 52.6458 61.748 50.6218 61.748C48.6088 61.748 47.4098 61.044 47.4098 59.9C47.4098 58.756 48.6088 58.052 50.6218 58.052C52.6458 58.052 53.8558 58.756 53.8558 59.9ZM50.6218 58.734C49.1698 58.734 48.2678 59.163 48.2678 59.9C48.2678 60.637 49.1698 61.055 50.6218 61.055C52.0848 61.055 52.9978 60.637 52.9978 59.9C52.9978 59.163 52.0848 58.734 50.6218 58.734ZM46.6948 52.904H51.1498C51.0068 55.423 49.1698 57.194 46.7168 57.942L46.2878 57.249C48.1798 56.831 49.9618 55.269 50.2038 53.619H46.6948V52.904ZM64.7154 56.116H63.2524V59.251H62.4164V52.156H63.2524V55.412H64.7154V56.116ZM63.6264 61.462H57.2244V58.998H58.0604V60.758H63.6264V61.462ZM59.9634 53.234H57.1914V52.497H59.9634V53.234ZM61.4484 54.653H55.8164V53.96H61.4484V54.653ZM60.8984 56.853C60.8984 57.865 59.9304 58.536 58.6324 58.536C57.3564 58.536 56.3774 57.865 56.3774 56.853C56.3774 55.819 57.3454 55.17 58.6324 55.17C59.9304 55.17 60.8984 55.819 60.8984 56.853ZM60.1064 56.853C60.1064 56.215 59.4134 55.83 58.6324 55.83C57.8624 55.83 57.1694 56.215 57.1694 56.853C57.1694 57.48 57.8624 57.865 58.6324 57.865C59.4134 57.865 60.1064 57.48 60.1064 56.853ZM77.2216 56.688H75.6596V61.77H74.8236V52.156H75.6596V55.973H77.2216V56.688ZM73.1076 59.383H68.5866V52.97H69.4226V55.412H72.2606V52.97H73.1076V59.383ZM72.2606 58.679V56.105H69.4226V58.679H72.2606ZM86.6292 55.412H85.1662V57.997H84.3412V52.156H85.1662V54.708H86.6292V55.412ZM85.1662 61.627H79.0062V58.492H85.1662V61.627ZM84.3302 60.934V59.185H79.8422V60.934H84.3302ZM83.3622 56.633L83.4612 57.315C82.4602 57.491 80.3812 57.634 79.0282 57.634H78.1262V54.741H81.5912V53.454H78.1042V52.761H82.4382V55.423H78.9622V56.93H79.0832C80.2052 56.93 82.2402 56.864 83.3622 56.633Z" fill="black"/>
<path d="M54.273 126.555H52.81V129.074H51.974V123.156H52.81V125.862H54.273V126.555ZM52.931 130.9C52.931 132.044 51.721 132.748 49.697 132.748C47.684 132.748 46.485 132.044 46.485 130.9C46.485 129.756 47.684 129.052 49.697 129.052C51.721 129.052 52.931 129.756 52.931 130.9ZM49.697 129.734C48.245 129.734 47.343 130.163 47.343 130.9C47.343 131.637 48.245 132.055 49.697 132.055C51.16 132.055 52.073 131.637 52.073 130.9C52.073 130.163 51.16 129.734 49.697 129.734ZM45.77 123.904H50.225C50.082 126.423 48.245 128.194 45.792 128.942L45.363 128.249C47.255 127.831 49.037 126.269 49.279 124.619H45.77V123.904ZM63.7906 127.116H62.3276V130.251H61.4916V123.156H62.3276V126.412H63.7906V127.116ZM62.7016 132.462H56.2996V129.998H57.1356V131.758H62.7016V132.462ZM59.0386 124.234H56.2666V123.497H59.0386V124.234ZM60.5236 125.653H54.8916V124.96H60.5236V125.653ZM59.9736 127.853C59.9736 128.865 59.0056 129.536 57.7076 129.536C56.4316 129.536 55.4526 128.865 55.4526 127.853C55.4526 126.819 56.4206 126.17 57.7076 126.17C59.0056 126.17 59.9736 126.819 59.9736 127.853ZM59.1816 127.853C59.1816 127.215 58.4886 126.83 57.7076 126.83C56.9376 126.83 56.2446 127.215 56.2446 127.853C56.2446 128.48 56.9376 128.865 57.7076 128.865C58.4886 128.865 59.1816 128.48 59.1816 127.853ZM76.2968 127.688H74.7348V132.77H73.8988V123.156H74.7348V126.973H76.2968V127.688ZM72.1828 130.383H67.6618V123.97H68.4978V126.412H71.3358V123.97H72.1828V130.383ZM71.3358 129.679V127.105H68.4978V129.679H71.3358ZM85.7044 126.412H84.2414V128.997H83.4164V123.156H84.2414V125.708H85.7044V126.412ZM84.2414 132.627H78.0814V129.492H84.2414V132.627ZM83.4054 131.934V130.185H78.9174V131.934H83.4054ZM82.4374 127.633L82.5364 128.315C81.5354 128.491 79.4564 128.634 78.1034 128.634H77.2014V125.741H80.6664V124.454H77.1794V123.761H81.5134V126.423H78.0374V127.93H78.1584C79.2804 127.93 81.3154 127.864 82.4374 127.633Z" fill="black"/>
<path d="M27.014 236.684C28.378 236.684 29.5 237.608 29.5 238.994C29.5 240.413 28.378 241.282 27.014 241.282C25.639 241.282 24.517 240.413 24.517 239.005C24.517 237.608 25.639 236.684 27.014 236.684ZM27.014 237.366C26.046 237.366 25.331 238.048 25.331 238.994C25.331 239.951 26.046 240.6 27.014 240.6C28.015 240.6 28.697 239.951 28.697 239.005C28.697 238.048 28.026 237.366 27.014 237.366ZM33.273 239.764V240.468H31.81V241.843H30.974V236.156H31.81V237.663H33.273V238.367H31.81V239.764H33.273ZM31.821 245.77H30.974V243.009H25.617V242.316H31.821V245.77ZM42.7906 239.874H41.3276V243.35H40.4916V236.156H41.3276V239.17H42.7906V239.874ZM41.6246 245.528H35.2776V242.558H36.1136V244.835H41.6246V245.528ZM34.2656 237.003H38.6436C38.5336 239.621 36.7516 241.458 34.2986 242.239L33.8696 241.535C35.9376 241.007 37.4886 239.478 37.7306 237.707H34.2656V237.003ZM55.1978 239.555H53.7348V242.074H52.8988V236.156H53.7348V238.862H55.1978V239.555ZM53.8558 243.9C53.8558 245.044 52.6458 245.748 50.6218 245.748C48.6088 245.748 47.4098 245.044 47.4098 243.9C47.4098 242.756 48.6088 242.052 50.6218 242.052C52.6458 242.052 53.8558 242.756 53.8558 243.9ZM50.6218 242.734C49.1698 242.734 48.2678 243.163 48.2678 243.9C48.2678 244.637 49.1698 245.055 50.6218 245.055C52.0848 245.055 52.9978 244.637 52.9978 243.9C52.9978 243.163 52.0848 242.734 50.6218 242.734ZM46.6948 236.904H51.1498C51.0068 239.423 49.1698 241.194 46.7168 241.942L46.2878 241.249C48.1798 240.831 49.9618 239.269 50.2038 237.619H46.6948V236.904ZM64.7154 240.116H63.2524V243.251H62.4164V236.156H63.2524V239.412H64.7154V240.116ZM63.6264 245.462H57.2244V242.998H58.0604V244.758H63.6264V245.462ZM59.9634 237.234H57.1914V236.497H59.9634V237.234ZM61.4484 238.653H55.8164V237.96H61.4484V238.653ZM60.8984 240.853C60.8984 241.865 59.9304 242.536 58.6324 242.536C57.3564 242.536 56.3774 241.865 56.3774 240.853C56.3774 239.819 57.3454 239.17 58.6324 239.17C59.9304 239.17 60.8984 239.819 60.8984 240.853ZM60.1064 240.853C60.1064 240.215 59.4134 239.83 58.6324 239.83C57.8624 239.83 57.1694 240.215 57.1694 240.853C57.1694 241.48 57.8624 241.865 58.6324 241.865C59.4134 241.865 60.1064 241.48 60.1064 240.853ZM77.2216 240.688H75.6596V245.77H74.8236V236.156H75.6596V239.973H77.2216V240.688ZM73.1076 243.383H68.5866V236.97H69.4226V239.412H72.2606V236.97H73.1076V243.383ZM72.2606 242.679V240.105H69.4226V242.679H72.2606ZM86.6292 239.412H85.1662V241.997H84.3412V236.156H85.1662V238.708H86.6292V239.412ZM85.1662 245.627H79.0062V242.492H85.1662V245.627ZM84.3302 244.934V243.185H79.8422V244.934H84.3302ZM83.3622 240.633L83.4612 241.315C82.4602 241.491 80.3812 241.634 79.0282 241.634H78.1262V238.741H81.5912V237.454H78.1042V236.761H82.4382V239.423H78.9622V240.93H79.0832C80.2052 240.93 82.2402 240.864 83.3622 240.633Z" fill="black"/>
<path d="M9.372 394.688H7.81V399.77H6.974V390.156H7.81V393.973H9.372V394.688ZM5.258 397.383H0.737V390.97H1.573V393.412H4.411V390.97H5.258V397.383ZM4.411 396.679V394.105H1.573V396.679H4.411ZM18.7796 393.412H17.3166V395.997H16.4916V390.156H17.3166V392.708H18.7796V393.412ZM17.3166 399.627H11.1566V396.492H17.3166V399.627ZM16.4806 398.934V397.185H11.9926V398.934H16.4806ZM15.5126 394.633L15.6116 395.315C14.6106 395.491 12.5316 395.634 11.1786 395.634H10.2766V392.741H13.7416V391.454H10.2546V390.761H14.5886V393.423H11.1126V394.93H11.2336C12.3556 394.93 14.3906 394.864 15.5126 394.633ZM30.1968 395.326H29.3608V393.137H27.7438V392.444H29.3608V390.156H30.1968V395.326ZM31.1428 399.143L30.6478 399.759C29.9438 399.352 29.2398 398.615 29.0308 397.966C28.8548 398.604 28.2058 399.396 27.4468 399.803L26.9848 399.187C28.0738 398.692 28.6348 397.636 28.6348 396.613V395.799H29.4488V396.613C29.4488 397.658 30.1088 398.648 31.1428 399.143ZM26.7538 399.638H23.4758V395.909H24.2678V397.108H25.9618V395.909H26.7538V399.638ZM25.9618 398.978V397.746H24.2678V398.978H25.9618ZM24.8948 390.629C26.2478 390.629 27.3588 391.509 27.3588 392.873C27.3588 394.248 26.2478 395.106 24.8948 395.106C23.5528 395.106 22.4198 394.248 22.4198 392.884C22.4198 391.531 23.5418 390.629 24.8948 390.629ZM24.8948 391.355C23.9488 391.355 23.2558 391.971 23.2558 392.873C23.2558 393.797 23.9488 394.413 24.8948 394.413C25.8738 394.413 26.5228 393.797 26.5228 392.884C26.5228 391.982 25.8848 391.355 24.8948 391.355ZM40.5394 395.502H31.8604V394.798H40.5394V395.502ZM39.4834 399.638H32.9274V396.503H39.4834V399.638ZM38.6474 398.945V397.185H33.7634V398.945H38.6474ZM39.5604 392.213C39.5604 393.302 38.3064 394.017 36.1944 394.017C34.0934 394.017 32.8504 393.302 32.8504 392.213C32.8504 391.124 34.0934 390.409 36.1944 390.409C38.3064 390.409 39.5604 391.124 39.5604 392.213ZM38.7464 392.213C38.7464 391.498 37.7344 391.08 36.1944 391.08C34.6544 391.08 33.6644 391.498 33.6644 392.213C33.6644 392.917 34.6544 393.346 36.1944 393.346C37.7344 393.346 38.7464 392.917 38.7464 392.213ZM44.128 394.622C44.491 394.93 44.744 395.15 45.107 395.15C45.481 395.15 45.734 394.765 45.822 394.193L46.471 394.38C46.306 395.436 45.602 395.92 45.063 395.92C44.634 395.92 44.26 395.722 43.864 395.414C43.82 395.381 43.798 395.337 43.765 395.304C43.424 395.007 43.215 394.842 42.907 394.842C42.533 394.842 42.335 395.216 42.17 395.81L41.521 395.59C41.774 394.457 42.335 394.072 42.995 394.072C43.424 394.072 43.831 394.38 44.128 394.622ZM56.0982 393.797H54.6352V397.141H53.7992V390.156H54.6352V393.093H56.0982V393.797ZM54.9762 399.462H48.6182V396.47H49.4542V398.769H54.9762V399.462ZM52.7322 394.919L52.2482 395.59C51.2362 395.128 50.3232 394.259 49.9272 393.269C49.6412 394.292 48.6182 395.403 47.5732 395.931L47.0562 395.26C48.3322 394.688 49.4872 393.302 49.4872 391.762V390.673H50.3342V391.729C50.3342 393.335 51.5772 394.501 52.7322 394.919ZM65.4398 394.952H56.7608V394.281H65.4398V394.952ZM64.6148 399.605H57.7838V397.328H63.4818V396.437H57.7728V395.777H64.3178V397.944H58.6198V398.945H64.6148V399.605ZM64.4608 393.478H57.8168V390.585H64.3508V391.267H58.6638V392.807H64.4608V393.478ZM75.2324 394.688H73.6704V399.77H72.8344V390.156H73.6704V393.973H75.2324V394.688ZM71.1184 397.383H66.5974V390.97H67.4334V393.412H70.2714V390.97H71.1184V397.383ZM70.2714 396.679V394.105H67.4334V396.679H70.2714ZM84.6399 393.412H83.1769V395.997H82.3519V390.156H83.1769V392.708H84.6399V393.412ZM83.1769 399.627H77.0169V396.492H83.1769V399.627ZM82.3409 398.934V397.185H77.8529V398.934H82.3409ZM81.3729 394.633L81.4719 395.315C80.4709 395.491 78.3919 395.634 77.0389 395.634H76.1369V392.741H79.6019V391.454H76.1149V390.761H80.4489V393.423H76.9729V394.93H77.0939C78.2159 394.93 80.2509 394.864 81.3729 394.633Z" fill="black"/>
<path d="M47.327 46.506V38.771L45.715 39.148V38.55L47.769 37.588H48.315V46.506H47.327ZM54.1445 46.662V44.621H50.0235V43.841L54.2875 37.614H55.0935V43.776H56.5495V44.621H55.0935V46.662H54.1445ZM51.1285 43.776H54.1445V39.252L51.1285 43.776ZM57.8064 46.454V40.006H58.7554V40.565H58.8074C59.4054 40.188 60.0944 39.889 60.8224 39.889C61.5504 39.889 62.0704 40.123 62.3694 40.604H62.4214C63.1234 40.149 63.8774 39.889 64.6054 39.889C65.7234 39.889 66.3734 40.396 66.3734 41.644V46.454H65.3984V41.852C65.3984 41.072 65.0864 40.747 64.2154 40.747C63.7084 40.747 63.1624 40.942 62.5514 41.215C62.5774 41.371 62.5904 41.488 62.5904 41.644V46.454H61.6024V41.852C61.6024 41.072 61.2904 40.747 60.4324 40.747C59.8864 40.747 59.3144 40.968 58.7944 41.215V46.454H57.8064ZM67.41 47.78L70.465 36.964H71.362L68.307 47.78H67.41ZM74.2725 46.558C73.4275 46.558 72.7255 46.402 72.1925 46.103V45.31C72.7515 45.518 73.2195 45.713 74.1295 45.713C75.1565 45.713 75.5725 45.349 75.5725 44.764C75.5725 44.166 75.2735 43.906 74.4545 43.672L73.8175 43.503C72.8815 43.243 72.2445 42.814 72.2445 41.722C72.2445 40.63 72.9595 39.889 74.4415 39.889C75.2995 39.889 75.8585 40.084 76.1965 40.266V41.072C75.8585 40.903 75.2085 40.734 74.4935 40.734C73.6225 40.734 73.1935 41.033 73.1935 41.631C73.1935 42.19 73.4665 42.424 74.1555 42.619L74.8055 42.801C76.0405 43.126 76.5475 43.542 76.5475 44.66C76.5475 45.882 75.6895 46.558 74.2725 46.558ZM80.8251 41.826C81.2541 42.19 81.5531 42.45 81.9821 42.45C82.4241 42.45 82.7231 41.995 82.8271 41.319L83.5941 41.54C83.3991 42.788 82.5671 43.36 81.9301 43.36C81.4231 43.36 80.9811 43.126 80.5131 42.762C80.4611 42.723 80.4351 42.671 80.3961 42.632C79.9931 42.281 79.7461 42.086 79.3821 42.086C78.9401 42.086 78.7061 42.528 78.5111 43.23L77.7441 42.97C78.0431 41.631 78.7061 41.176 79.4861 41.176C79.9931 41.176 80.4741 41.54 80.8251 41.826Z" fill="black"/>
<path d="M38.445 108.588C40.395 108.588 41.474 109.927 41.474 112.397V112.969C41.474 116.011 40.252 117.61 38.146 117.61C37.249 117.61 36.43 117.337 36.027 117.064L36.313 116.31C36.69 116.531 37.392 116.739 38.094 116.739C39.524 116.739 40.343 115.829 40.434 113.385C39.966 113.918 39.251 114.347 38.289 114.347C36.82 114.347 35.624 113.281 35.624 111.617C35.624 109.979 36.677 108.588 38.445 108.588ZM38.458 109.446C37.327 109.446 36.651 110.317 36.651 111.526C36.651 112.891 37.444 113.476 38.497 113.476C39.329 113.476 40.07 112.891 40.434 112.384V112.137C40.434 110.512 39.849 109.446 38.458 109.446ZM45.9422 112.826C46.3712 113.19 46.6702 113.45 47.0992 113.45C47.5412 113.45 47.8402 112.995 47.9442 112.319L48.7112 112.54C48.5162 113.788 47.6842 114.36 47.0472 114.36C46.5402 114.36 46.0982 114.126 45.6302 113.762C45.5782 113.723 45.5522 113.671 45.5132 113.632C45.1102 113.281 44.8632 113.086 44.4992 113.086C44.0572 113.086 43.8232 113.528 43.6282 114.23L42.8612 113.97C43.1602 112.631 43.8232 112.176 44.6032 112.176C45.1102 112.176 45.5912 112.54 45.9422 112.826ZM51.4569 117.506V109.771L49.8449 110.148V109.55L51.8989 108.588H52.4449V117.506H51.4569ZM58.2744 117.662V115.621H54.1534V114.841L58.4174 108.614H59.2234V114.776H60.6794V115.621H59.2234V117.662H58.2744ZM55.2584 114.776H58.2744V110.252L55.2584 114.776ZM61.9363 117.454V111.006H62.8853V111.565H62.9373C63.5353 111.188 64.2243 110.889 64.9523 110.889C65.6803 110.889 66.2003 111.123 66.4993 111.604H66.5513C67.2533 111.149 68.0073 110.889 68.7353 110.889C69.8533 110.889 70.5033 111.396 70.5033 112.644V117.454H69.5283V112.852C69.5283 112.072 69.2163 111.747 68.3453 111.747C67.8383 111.747 67.2923 111.942 66.6813 112.215C66.7073 112.371 66.7203 112.488 66.7203 112.644V117.454H65.7323V112.852C65.7323 112.072 65.4203 111.747 64.5623 111.747C64.0163 111.747 63.4443 111.968 62.9243 112.215V117.454H61.9363ZM71.5399 118.78L74.5949 107.964H75.4919L72.4369 118.78H71.5399ZM78.4024 117.558C77.5574 117.558 76.8554 117.402 76.3224 117.103V116.31C76.8814 116.518 77.3494 116.713 78.2594 116.713C79.2864 116.713 79.7024 116.349 79.7024 115.764C79.7024 115.166 79.4034 114.906 78.5844 114.672L77.9474 114.503C77.0114 114.243 76.3744 113.814 76.3744 112.722C76.3744 111.63 77.0894 110.889 78.5714 110.889C79.4294 110.889 79.9884 111.084 80.3264 111.266V112.072C79.9884 111.903 79.3384 111.734 78.6234 111.734C77.7524 111.734 77.3234 112.033 77.3234 112.631C77.3234 113.19 77.5964 113.424 78.2854 113.619L78.9354 113.801C80.1704 114.126 80.6774 114.542 80.6774 115.66C80.6774 116.882 79.8194 117.558 78.4024 117.558Z" fill="black"/>
<path d="M45.498 230.662V228.621H41.377V227.841L45.641 221.614H46.447V227.776H47.903V228.621H46.447V230.662H45.498ZM42.482 227.776H45.498V223.252L42.482 227.776ZM51.9549 225.826C52.3839 226.19 52.6829 226.45 53.1119 226.45C53.5539 226.45 53.8529 225.995 53.9569 225.319L54.7239 225.54C54.5289 226.788 53.6969 227.36 53.0599 227.36C52.5529 227.36 52.1109 227.126 51.6429 226.762C51.5909 226.723 51.5649 226.671 51.5259 226.632C51.1229 226.281 50.8759 226.086 50.5119 226.086C50.0699 226.086 49.8359 226.528 49.6409 227.23L48.8739 226.97C49.1729 225.631 49.8359 225.176 50.6159 225.176C51.1229 225.176 51.6039 225.54 51.9549 225.826ZM58.5876 221.588C60.5376 221.588 61.6166 222.927 61.6166 225.397V225.969C61.6166 229.011 60.3946 230.61 58.2886 230.61C57.3916 230.61 56.5726 230.337 56.1696 230.064L56.4556 229.31C56.8326 229.531 57.5346 229.739 58.2366 229.739C59.6666 229.739 60.4856 228.829 60.5766 226.385C60.1086 226.918 59.3936 227.347 58.4316 227.347C56.9626 227.347 55.7666 226.281 55.7666 224.617C55.7666 222.979 56.8196 221.588 58.5876 221.588ZM58.6006 222.446C57.4696 222.446 56.7936 223.317 56.7936 224.526C56.7936 225.891 57.5866 226.476 58.6396 226.476C59.4716 226.476 60.2126 225.891 60.5766 225.384V225.137C60.5766 223.512 59.9916 222.446 58.6006 222.446ZM63.2898 230.454V224.006H64.2388V224.565H64.2908C64.8888 224.188 65.5778 223.889 66.3058 223.889C67.0338 223.889 67.5538 224.123 67.8528 224.604H67.9048C68.6068 224.149 69.3608 223.889 70.0888 223.889C71.2068 223.889 71.8568 224.396 71.8568 225.644V230.454H70.8818V225.852C70.8818 225.072 70.5698 224.747 69.6988 224.747C69.1918 224.747 68.6458 224.942 68.0348 225.215C68.0608 225.371 68.0738 225.488 68.0738 225.644V230.454H67.0858V225.852C67.0858 225.072 66.7738 224.747 65.9158 224.747C65.3698 224.747 64.7978 224.968 64.2778 225.215V230.454H63.2898ZM72.8934 231.78L75.9484 220.964H76.8454L73.7904 231.78H72.8934ZM79.7559 230.558C78.9109 230.558 78.2089 230.402 77.6759 230.103V229.31C78.2349 229.518 78.7029 229.713 79.6129 229.713C80.6399 229.713 81.0559 229.349 81.0559 228.764C81.0559 228.166 80.7569 227.906 79.9379 227.672L79.3009 227.503C78.3649 227.243 77.7279 226.814 77.7279 225.722C77.7279 224.63 78.4429 223.889 79.9249 223.889C80.7829 223.889 81.3419 224.084 81.6799 224.266V225.072C81.3419 224.903 80.6919 224.734 79.9769 224.734C79.1059 224.734 78.6769 225.033 78.6769 225.631C78.6769 226.19 78.9499 226.424 79.6389 226.619L80.2889 226.801C81.5239 227.126 82.0309 227.542 82.0309 228.66C82.0309 229.882 81.1729 230.558 79.7559 230.558Z" fill="black"/>
<path d="M43.108 384.61C41.314 384.61 39.91 383.388 39.91 380.437V379.709C39.91 376.628 41.405 375.588 43.121 375.588C44.824 375.588 46.228 376.628 46.228 379.657V380.45C46.228 383.401 44.876 384.61 43.108 384.61ZM43.108 383.752C44.447 383.752 45.175 382.842 45.175 380.606V379.644C45.175 377.447 44.46 376.446 43.121 376.446C41.756 376.446 41.015 377.395 41.015 379.579V380.541C41.015 382.712 41.743 383.752 43.108 383.752ZM50.9325 379.826C51.3615 380.19 51.6605 380.45 52.0895 380.45C52.5315 380.45 52.8305 379.995 52.9345 379.319L53.7015 379.54C53.5065 380.788 52.6745 381.36 52.0375 381.36C51.5305 381.36 51.0885 381.126 50.6205 380.762C50.5685 380.723 50.5425 380.671 50.5035 380.632C50.1005 380.281 49.8535 380.086 49.4895 380.086C49.0475 380.086 48.8135 380.528 48.6185 381.23L47.8515 380.97C48.1505 379.631 48.8135 379.176 49.5935 379.176C50.1005 379.176 50.5815 379.54 50.9325 379.826ZM58.6181 384.662V382.621H54.4971V381.841L58.7611 375.614H59.5671V381.776H61.0231V382.621H59.5671V384.662H58.6181ZM55.6021 381.776H58.6181V377.252L55.6021 381.776ZM62.2801 384.454V378.006H63.2291V378.565H63.2811C63.8791 378.188 64.5681 377.889 65.2961 377.889C66.0241 377.889 66.5441 378.123 66.8431 378.604H66.8951C67.5971 378.149 68.3511 377.889 69.0791 377.889C70.1971 377.889 70.8471 378.396 70.8471 379.644V384.454H69.8721V379.852C69.8721 379.072 69.5601 378.747 68.6891 378.747C68.1821 378.747 67.6361 378.942 67.0251 379.215C67.0511 379.371 67.0641 379.488 67.0641 379.644V384.454H66.0761V379.852C66.0761 379.072 65.7641 378.747 64.9061 378.747C64.3601 378.747 63.7881 378.968 63.2681 379.215V384.454H62.2801ZM71.8836 385.78L74.9386 374.964H75.8356L72.7806 385.78H71.8836ZM78.7462 384.558C77.9012 384.558 77.1992 384.402 76.6662 384.103V383.31C77.2252 383.518 77.6932 383.713 78.6032 383.713C79.6302 383.713 80.0462 383.349 80.0462 382.764C80.0462 382.166 79.7472 381.906 78.9282 381.672L78.2912 381.503C77.3552 381.243 76.7182 380.814 76.7182 379.722C76.7182 378.63 77.4332 377.889 78.9152 377.889C79.7732 377.889 80.3322 378.084 80.6702 378.266V379.072C80.3322 378.903 79.6822 378.734 78.9672 378.734C78.0962 378.734 77.6672 379.033 77.6672 379.631C77.6672 380.19 77.9402 380.424 78.6292 380.619L79.2792 380.801C80.5142 381.126 81.0212 381.542 81.0212 382.66C81.0212 383.882 80.1632 384.558 78.7462 384.558Z" fill="black"/>
<rect x="97" width="6" height="67" rx="3" fill="#5189F6"/>
<rect x="97" y="77" width="6" height="104" rx="3" fill="#5189F6" fill-opacity="0.7"/>
<rect x="97" y="188" width="6" height="146" rx="3" fill="#5189F6" fill-opacity="0.4"/>
<rect x="97" y="342" width="6" height="126" rx="3" fill="#5189F6" fill-opacity="0.2"/>
<path d="M66.5 197C66.6978 197 66.8911 196.941 67.0556 196.831C67.22 196.722 67.3482 196.565 67.4239 196.383C67.4996 196.2 67.5194 195.999 67.4808 195.805C67.4422 195.611 67.347 195.433 67.2071 195.293C67.0673 195.153 66.8891 195.058 66.6951 195.019C66.5011 194.981 66.3 195 66.1173 195.076C65.9346 195.152 65.7784 195.28 65.6685 195.444C65.5586 195.609 65.5 195.802 65.5 196C65.5 196.265 65.6054 196.52 65.7929 196.707C65.9804 196.895 66.2348 197 66.5 197ZM70.5 197H77.5C78.2956 197 79.0587 196.684 79.6213 196.121C80.1839 195.559 80.5 194.796 80.5 194C80.5 193.204 80.1839 192.441 79.6213 191.879C79.0587 191.316 78.2956 191 77.5 191C76.9739 191.002 76.4573 191.14 76 191.4C75.8854 191.465 75.7849 191.553 75.7042 191.657C75.6235 191.761 75.5643 191.881 75.5299 192.008C75.4955 192.135 75.4866 192.268 75.5038 192.399C75.521 192.53 75.5639 192.656 75.63 192.77C75.6962 192.884 75.7841 192.983 75.8889 193.063C75.9936 193.143 76.113 193.201 76.2403 193.234C76.3675 193.268 76.5002 193.276 76.6305 193.258C76.7609 193.24 76.8865 193.197 77 193.13C77.1538 193.047 77.3253 193.003 77.5 193C77.7652 193 78.0196 193.105 78.2071 193.293C78.3946 193.48 78.5 193.735 78.5 194C78.5 194.265 78.3946 194.52 78.2071 194.707C78.0196 194.895 77.7652 195 77.5 195H70.5C70.2348 195 69.9804 195.105 69.7929 195.293C69.6054 195.48 69.5 195.735 69.5 196C69.5 196.265 69.6054 196.52 69.7929 196.707C69.9804 196.895 70.2348 197 70.5 197ZM66.5 201H73.5C73.7652 201 74.0196 200.895 74.2071 200.707C74.3946 200.52 74.5 200.265 74.5 200C74.5 199.735 74.3946 199.48 74.2071 199.293C74.0196 199.105 73.7652 199 73.5 199H66.5C66.2348 199 65.9804 199.105 65.7929 199.293C65.6054 199.48 65.5 199.735 65.5 200C65.5 200.265 65.6054 200.52 65.7929 200.707C65.9804 200.895 66.2348 201 66.5 201ZM83.5 197C83.6978 197 83.8911 196.941 84.0556 196.831C84.22 196.722 84.3482 196.565 84.4239 196.383C84.4996 196.2 84.5194 195.999 84.4808 195.805C84.4422 195.611 84.347 195.433 84.2071 195.293C84.0673 195.153 83.8891 195.058 83.6951 195.019C83.5011 194.981 83.3 195 83.1173 195.076C82.9346 195.152 82.7784 195.28 82.6685 195.444C82.5586 195.609 82.5 195.802 82.5 196C82.5 196.265 82.6054 196.52 82.7929 196.707C82.9804 196.895 83.2348 197 83.5 197ZM81.5 199H77.5C77.2348 199 76.9804 199.105 76.7929 199.293C76.6054 199.48 76.5 199.735 76.5 200C76.5 200.265 76.6054 200.52 76.7929 200.707C76.9804 200.895 77.2348 201 77.5 201H81.5C81.7652 201 82.0196 201.105 82.2071 201.293C82.3946 201.48 82.5 201.735 82.5 202C82.5 202.265 82.3946 202.52 82.2071 202.707C82.0196 202.895 81.7652 203 81.5 203C81.2348 203 80.9804 203.105 80.7929 203.293C80.6054 203.48 80.5 203.735 80.5 204C80.5 204.265 80.6054 204.52 80.7929 204.707C80.9804 204.895 81.2348 205 81.5 205C82.2956 205 83.0587 204.684 83.6213 204.121C84.1839 203.559 84.5 202.796 84.5 202C84.5 201.204 84.1839 200.441 83.6213 199.879C83.0587 199.316 82.2956 199 81.5 199ZM75.5 203H71.5C71.2348 203 70.9804 203.105 70.7929 203.293C70.6054 203.48 70.5 203.735 70.5 204C70.5 204.265 70.6054 204.52 70.7929 204.707C70.9804 204.895 71.2348 205 71.5 205H75.5C75.7652 205 76.0196 205.105 76.2071 205.293C76.3946 205.48 76.5 205.735 76.5 206C76.5 206.265 76.3946 206.52 76.2071 206.707C76.0196 206.895 75.7652 207 75.5 207C75.3253 206.997 75.1538 206.953 75 206.87C74.8862 206.798 74.7589 206.749 74.6258 206.727C74.4927 206.705 74.3566 206.711 74.2256 206.743C74.0946 206.775 73.9715 206.833 73.8636 206.914C73.7557 206.995 73.6652 207.097 73.5978 207.213C73.5303 207.33 73.4871 207.459 73.4708 207.593C73.4546 207.727 73.4655 207.863 73.5031 207.993C73.5407 208.122 73.6041 208.243 73.6895 208.347C73.7749 208.451 73.8805 208.537 74 208.6C74.4573 208.86 74.9739 208.998 75.5 209C76.2956 209 77.0587 208.684 77.6213 208.121C78.1839 207.559 78.5 206.796 78.5 206C78.5 205.204 78.1839 204.441 77.6213 203.879C77.0587 203.316 76.2956 203 75.5 203ZM67.5 203H66.5C66.2348 203 65.9804 203.105 65.7929 203.293C65.6054 203.48 65.5 203.735 65.5 204C65.5 204.265 65.6054 204.52 65.7929 204.707C65.9804 204.895 66.2348 205 66.5 205H67.5C67.7652 205 68.0196 204.895 68.2071 204.707C68.3946 204.52 68.5 204.265 68.5 204C68.5 203.735 68.3946 203.48 68.2071 203.293C68.0196 203.105 67.7652 203 67.5 203Z" fill="#5189F6" fill-opacity="0.5"/>
<path d="M66.5 351C66.6978 351 66.8911 350.941 67.0556 350.831C67.22 350.722 67.3482 350.565 67.4239 350.383C67.4996 350.2 67.5194 349.999 67.4808 349.805C67.4422 349.611 67.347 349.433 67.2071 349.293C67.0673 349.153 66.8891 349.058 66.6951 349.019C66.5011 348.981 66.3 349 66.1173 349.076C65.9346 349.152 65.7784 349.28 65.6685 349.444C65.5586 349.609 65.5 349.802 65.5 350C65.5 350.265 65.6054 350.52 65.7929 350.707C65.9804 350.895 66.2348 351 66.5 351ZM70.5 351H77.5C78.2956 351 79.0587 350.684 79.6213 350.121C80.1839 349.559 80.5 348.796 80.5 348C80.5 347.204 80.1839 346.441 79.6213 345.879C79.0587 345.316 78.2956 345 77.5 345C76.9739 345.002 76.4573 345.14 76 345.4C75.8854 345.465 75.7849 345.553 75.7042 345.657C75.6235 345.761 75.5643 345.881 75.5299 346.008C75.4955 346.135 75.4866 346.268 75.5038 346.399C75.521 346.53 75.5639 346.656 75.63 346.77C75.6962 346.884 75.7841 346.983 75.8889 347.063C75.9936 347.143 76.113 347.201 76.2403 347.234C76.3675 347.268 76.5002 347.276 76.6305 347.258C76.7609 347.24 76.8865 347.197 77 347.13C77.1538 347.047 77.3253 347.003 77.5 347C77.7652 347 78.0196 347.105 78.2071 347.293C78.3946 347.48 78.5 347.735 78.5 348C78.5 348.265 78.3946 348.52 78.2071 348.707C78.0196 348.895 77.7652 349 77.5 349H70.5C70.2348 349 69.9804 349.105 69.7929 349.293C69.6054 349.48 69.5 349.735 69.5 350C69.5 350.265 69.6054 350.52 69.7929 350.707C69.9804 350.895 70.2348 351 70.5 351ZM66.5 355H73.5C73.7652 355 74.0196 354.895 74.2071 354.707C74.3946 354.52 74.5 354.265 74.5 354C74.5 353.735 74.3946 353.48 74.2071 353.293C74.0196 353.105 73.7652 353 73.5 353H66.5C66.2348 353 65.9804 353.105 65.7929 353.293C65.6054 353.48 65.5 353.735 65.5 354C65.5 354.265 65.6054 354.52 65.7929 354.707C65.9804 354.895 66.2348 355 66.5 355ZM83.5 351C83.6978 351 83.8911 350.941 84.0556 350.831C84.22 350.722 84.3482 350.565 84.4239 350.383C84.4996 350.2 84.5194 349.999 84.4808 349.805C84.4422 349.611 84.347 349.433 84.2071 349.293C84.0673 349.153 83.8891 349.058 83.6951 349.019C83.5011 348.981 83.3 349 83.1173 349.076C82.9346 349.152 82.7784 349.28 82.6685 349.444C82.5586 349.609 82.5 349.802 82.5 350C82.5 350.265 82.6054 350.52 82.7929 350.707C82.9804 350.895 83.2348 351 83.5 351ZM81.5 353H77.5C77.2348 353 76.9804 353.105 76.7929 353.293C76.6054 353.48 76.5 353.735 76.5 354C76.5 354.265 76.6054 354.52 76.7929 354.707C76.9804 354.895 77.2348 355 77.5 355H81.5C81.7652 355 82.0196 355.105 82.2071 355.293C82.3946 355.48 82.5 355.735 82.5 356C82.5 356.265 82.3946 356.52 82.2071 356.707C82.0196 356.895 81.7652 357 81.5 357C81.2348 357 80.9804 357.105 80.7929 357.293C80.6054 357.48 80.5 357.735 80.5 358C80.5 358.265 80.6054 358.52 80.7929 358.707C80.9804 358.895 81.2348 359 81.5 359C82.2956 359 83.0587 358.684 83.6213 358.121C84.1839 357.559 84.5 356.796 84.5 356C84.5 355.204 84.1839 354.441 83.6213 353.879C83.0587 353.316 82.2956 353 81.5 353ZM75.5 357H71.5C71.2348 357 70.9804 357.105 70.7929 357.293C70.6054 357.48 70.5 357.735 70.5 358C70.5 358.265 70.6054 358.52 70.7929 358.707C70.9804 358.895 71.2348 359 71.5 359H75.5C75.7652 359 76.0196 359.105 76.2071 359.293C76.3946 359.48 76.5 359.735 76.5 360C76.5 360.265 76.3946 360.52 76.2071 360.707C76.0196 360.895 75.7652 361 75.5 361C75.3253 360.997 75.1538 360.953 75 360.87C74.8862 360.798 74.7589 360.749 74.6258 360.727C74.4927 360.705 74.3566 360.711 74.2256 360.743C74.0946 360.775 73.9715 360.833 73.8636 360.914C73.7557 360.995 73.6652 361.097 73.5978 361.213C73.5303 361.33 73.4871 361.459 73.4708 361.593C73.4546 361.727 73.4655 361.863 73.5031 361.993C73.5407 362.122 73.6041 362.243 73.6895 362.347C73.7749 362.451 73.8805 362.537 74 362.6C74.4573 362.86 74.9739 362.998 75.5 363C76.2956 363 77.0587 362.684 77.6213 362.121C78.1839 361.559 78.5 360.796 78.5 360C78.5 359.204 78.1839 358.441 77.6213 357.879C77.0587 357.316 76.2956 357 75.5 357ZM67.5 357H66.5C66.2348 357 65.9804 357.105 65.7929 357.293C65.6054 357.48 65.5 357.735 65.5 358C65.5 358.265 65.6054 358.52 65.7929 358.707C65.9804 358.895 66.2348 359 66.5 359H67.5C67.7652 359 68.0196 358.895 68.2071 358.707C68.3946 358.52 68.5 358.265 68.5 358C68.5 357.735 68.3946 357.48 68.2071 357.293C68.0196 357.105 67.7652 357 67.5 357Z" fill="#A5A8B0"/>
<path d="M80.7 84.7C80.9927 84.4181 81.3497 84.2119 81.7401 84.0991C82.1304 83.9863 82.5424 83.9704 82.9403 84.0527C83.3383 84.135 83.7101 84.313 84.0237 84.5714C84.3373 84.8298 84.5832 85.1607 84.7401 85.5355C84.897 85.9103 84.9602 86.3178 84.9242 86.7225C84.8882 87.1272 84.754 87.5171 84.5334 87.8583C84.3128 88.1995 84.0123 88.4818 83.658 88.6808C83.3037 88.8797 82.9062 88.9893 82.5 89H65M72.6 81.6C72.8317 81.3637 73.1184 81.1886 73.4344 81.0903C73.7504 80.9921 74.0858 80.9738 74.4106 81.0371C74.7355 81.1004 75.0395 81.2433 75.2955 81.453C75.5515 81.6627 75.7514 81.9327 75.8774 82.2387C76.0034 82.5447 76.0515 82.8772 76.0174 83.2063C75.9833 83.5355 75.8681 83.851 75.682 84.1247C75.4959 84.3984 75.2449 84.6216 74.9513 84.7743C74.6578 84.9271 74.3309 85.0046 74 85H65M75.6 96.4C75.8317 96.6363 76.1184 96.8114 76.4344 96.9096C76.7504 97.0079 77.0858 97.0262 77.4106 96.9629C77.7355 96.8996 78.0395 96.7567 78.2955 96.5469C78.5515 96.3372 78.7514 96.0673 78.8774 95.7613C79.0034 95.4553 79.0515 95.1228 79.0174 94.7936C78.9833 94.4645 78.8681 94.1489 78.682 93.8753C78.4959 93.6016 78.2449 93.3784 77.9513 93.2256C77.6578 93.0729 77.3309 92.9953 77 93H65" stroke="#5189F6" stroke-width="2" stroke-linecap="round" stroke-linejoin="round"/>
<path d="M81.4792 7.70005C81.7841 7.41821 82.1559 7.21196 82.5626 7.09917C82.9692 6.98637 83.3984 6.97043 83.8128 7.05272C84.2273 7.13501 84.6147 7.31306 84.9414 7.57144C85.2681 7.82982 85.5242 8.16075 85.6876 8.53557C85.8511 8.9104 85.9169 9.31781 85.8794 9.72255C85.8418 10.1273 85.7021 10.5171 85.4723 10.8584C85.2425 11.1996 84.9295 11.4819 84.5604 11.6808C84.1913 11.8798 83.7773 11.9893 83.3542 12H65.125M73.0417 4.60005C73.283 4.36375 73.5816 4.18864 73.9108 4.0904C74.24 3.99216 74.5894 3.97387 74.9278 4.03717C75.2661 4.10047 75.5828 4.24338 75.8495 4.45309C76.1161 4.66279 76.3244 4.93275 76.4557 5.23874C76.5869 5.54474 76.637 5.87723 76.6015 6.20639C76.566 6.53555 76.4459 6.85111 76.2521 7.12477C76.0583 7.39843 75.7968 7.62164 75.491 7.7744C75.1852 7.92716 74.8447 8.0047 74.5 8.00005H65.125M76.1667 19.4C76.408 19.6363 76.7066 19.8115 77.0358 19.9097C77.365 20.0079 77.7144 20.0262 78.0528 19.9629C78.3911 19.8996 78.7078 19.7567 78.9745 19.547C79.2411 19.3373 79.4494 19.0673 79.5807 18.7613C79.7119 18.4554 79.762 18.1229 79.7265 17.7937C79.691 17.4645 79.5709 17.149 79.3771 16.8753C79.1833 16.6017 78.9218 16.3785 78.616 16.2257C78.3102 16.0729 77.9697 15.9954 77.625 16H65.125" stroke="#5189F6" stroke-width="2" stroke-linecap="round" stroke-linejoin="round"/>
<circle cx="68" cy="18" r="5" fill="#FF4E00"/>
<path d="M67.7488 19.263L67.6408 14.259H68.4598L68.3518 19.263H67.7488ZM67.6678 20.793V19.992H68.4418V20.793H67.6678Z" fill="white"/>
</svg>
